<svg width="22" height="24" viewBox="0 0 22 24" fill="none" xmlns="http://www.w3.org/2000/svg">
<path d="M19.9746 2.57677H16.4139V0.796387H14.6335V2.57677H7.51193V0.796387H5.73154V2.57677H2.17077C1.19155 2.57677 0.390381 3.37795 0.390381 4.35716V22.161C0.390381 23.1402 1.19155 23.9414 2.17077 23.9414H19.9746C20.9538 23.9414 21.755 23.1402 21.755 22.161V4.35716C21.755 3.37795 20.9538 2.57677 19.9746 2.57677ZM19.9746 22.161H2.17077V9.69832H19.9746V22.161ZM19.9746 7.91793H2.17077V4.35716H5.73154V6.13755H7.51193V4.35716H14.6335V6.13755H16.4139V4.35716H19.9746V7.91793Z" fill="#93AAFC"/>
</svg>
