<svg width="619" height="383" viewBox="0 0 619 383" fill="none" xmlns="http://www.w3.org/2000/svg">
<mask id="mask0_28_206" style="mask-type:luminance" maskUnits="userSpaceOnUse" x="0" y="0" width="618" height="301">
<path d="M617.243 196.305C606.043 144.005 493.443 119.305 347.243 140.605C184.843 164.305 42.2435 236.005 28.9435 300.605L0.543457 168.305C13.9435 103.605 156.443 32.0054 318.843 8.30539C465.043 -13.0946 577.543 11.7054 588.843 64.0054C597.343 103.705 608.743 156.605 617.243 196.305Z" fill="white"/>
</mask>
<g mask="url(#mask0_28_206)">
<path d="M441.343 99.5054C442.043 99.5054 442.643 99.5054 443.343 99.5054L447.543 104.405L449.743 99.6054C450.443 99.6054 451.143 99.6054 451.743 99.6054L448.643 105.705L449.543 109.705C448.943 109.705 448.443 109.705 447.843 109.705L446.943 105.605L441.343 99.5054Z" fill="#482CFF"/>
<path d="M437.243 108.905C440.643 108.805 439.243 104.705 438.243 103.605C436.943 102.305 433.743 102.205 433.743 104.805C433.743 106.205 434.543 108.905 437.243 108.905ZM435.643 101.605C440.843 101.605 442.243 107.305 440.243 109.205C437.943 111.305 431.743 109.805 432.043 104.505C432.143 102.705 433.443 101.605 435.643 101.605Z" fill="#482CFF"/>
<path d="M420.143 102.205C420.743 102.205 421.243 102.205 421.843 102.105L422.843 106.605C423.543 109.405 426.843 109.405 427.543 108.405C427.843 108.005 427.643 107.305 427.643 107.005L426.543 101.905C427.143 101.905 427.643 101.905 428.243 101.905L429.243 106.705L429.343 107.105C430.343 111.605 424.743 110.005 424.043 109.505C423.643 109.205 423.343 108.905 423.243 108.805L423.543 110.005C423.043 110.005 422.443 110.005 421.943 110.105L420.143 102.205Z" fill="#482CFF"/>
<path d="M410.944 102.305C412.344 102.305 413.544 102.705 414.544 103.705L414.244 102.405C414.744 102.405 415.244 102.405 415.844 102.305L417.544 110.205C416.944 110.205 416.444 110.205 415.844 110.305L414.844 105.805C414.144 102.605 410.444 103.205 409.944 104.105C409.744 104.505 409.844 104.905 409.844 105.105C409.244 105.105 408.644 105.205 408.044 105.205C407.844 104.005 407.844 102.405 410.944 102.305Z" fill="#482CFF"/>
<path d="M386.843 104.505C388.443 104.405 389.943 104.205 391.443 104.105L391.643 105.205C390.743 105.305 389.743 105.305 388.843 105.405L390.043 110.805C391.243 110.705 392.543 110.605 393.743 110.505L393.943 111.605C390.843 111.805 387.743 112.105 384.643 112.405L384.443 111.305C385.743 111.205 386.943 111.105 388.243 111.005L386.843 104.505ZM386.043 101.505C386.643 101.405 387.343 101.405 387.943 101.305L388.243 102.805C387.643 102.905 386.943 102.905 386.343 103.005L386.043 101.505Z" fill="#482CFF"/>
<path d="M377.343 112.205C380.643 111.805 379.743 107.905 378.243 106.705C376.743 105.505 373.343 105.905 373.643 108.905C373.743 109.705 374.343 112.505 377.343 112.205ZM370.443 103.005C371.043 102.905 371.643 102.905 372.343 102.805L373.143 106.705C374.743 103.805 380.043 104.305 381.243 108.205C382.643 113.005 377.643 114.105 375.343 112.905C374.843 112.605 374.543 112.305 374.443 112.205L374.743 113.405C374.143 113.505 373.543 113.505 372.843 113.605L370.443 103.005Z" fill="#482CFF"/>
<path d="M366.244 109.505C365.244 106.505 361.544 107.105 360.744 108.705C360.444 109.305 360.543 109.905 360.643 110.205C362.543 109.905 364.344 109.705 366.244 109.505ZM362.744 106.305C368.344 105.705 369.444 111.205 367.744 113.205C366.044 115.305 360.843 115.405 359.443 112.705C360.043 112.605 360.643 112.505 361.343 112.505C362.543 114.305 366.143 113.805 366.543 111.705C366.643 111.205 366.543 110.805 366.543 110.605C364.043 110.905 361.543 111.205 359.043 111.505C358.043 108.605 359.444 106.705 362.744 106.305Z" fill="#482CFF"/>
<path d="M352.443 115.105C354.943 114.705 353.943 113.105 353.643 112.805C353.143 112.405 352.143 112.405 351.243 112.505C350.043 112.505 349.243 112.605 348.543 112.405L348.843 113.705C349.043 114.805 350.543 115.305 352.443 115.105ZM349.843 107.905C352.543 107.605 354.243 108.305 354.643 109.805V109.905C354.043 110.005 353.543 110.005 352.943 110.105C352.443 108.105 348.543 109.105 348.043 109.905C347.843 110.205 347.143 111.605 350.843 111.405C353.843 111.205 354.643 111.705 354.943 111.905C355.843 112.505 356.143 113.705 355.743 114.605C355.043 116.005 351.843 117.005 348.843 115.405C348.943 116.205 348.543 116.605 347.243 116.805L346.743 116.905H346.143L345.943 115.905H346.243C347.143 115.805 347.043 115.505 346.943 115.005L346.043 110.905C345.943 109.805 346.143 108.405 349.843 107.905Z" fill="#482CFF"/>
<path d="M336.743 109.805C341.643 109.105 342.043 111.805 341.243 112.805C340.743 113.505 339.243 114.005 338.743 114.205C335.843 115.205 335.743 115.205 335.343 115.505C334.943 115.805 334.943 116.605 335.743 116.905C336.843 117.505 340.843 117.205 340.743 115.105C341.143 115.005 341.443 115.005 341.843 114.905C342.143 114.905 342.343 114.805 342.643 114.805C343.243 118.505 336.043 119.105 334.043 117.605C333.143 116.905 333.043 115.805 333.343 115.205C333.643 114.705 334.243 114.205 336.243 113.505C338.843 112.705 339.043 112.605 339.443 112.305C339.943 111.905 339.743 111.205 339.243 111.005C338.143 110.405 334.643 110.905 334.743 112.505C334.143 112.605 333.543 112.705 332.843 112.805C332.543 111.105 334.743 110.105 336.743 109.805Z" fill="#482CFF"/>
<path d="M323.343 118.105C324.343 117.905 325.343 117.805 326.343 117.605L326.843 119.805C326.343 119.905 325.843 120.005 325.343 120.005L325.443 120.305C325.743 121.405 326.243 121.805 327.743 121.705L327.943 122.705C325.543 123.005 324.243 122.305 323.843 120.505L323.343 118.105Z" fill="#482CFF"/>
<path d="M548.043 138.405C550.343 139.005 549.043 134.805 548.343 133.705C547.443 132.105 545.843 131.705 545.543 132.905C545.243 134.105 546.043 137.805 548.043 138.405ZM546.343 131.105C547.243 131.405 547.943 132.005 548.643 133.205L548.343 132.005C548.743 132.105 549.043 132.205 549.443 132.305L551.743 143.205C551.343 143.105 551.043 143.005 550.643 142.905L549.743 138.605C548.943 140.905 546.143 138.905 545.043 136.505C544.043 134.305 543.543 130.305 546.343 131.105Z" fill="#482CFF"/>
<path d="M537.643 128.805C538.343 129.005 539.343 129.505 540.243 131.005L539.943 129.705C540.343 129.805 540.643 129.905 541.043 130.005L542.743 137.905C542.343 137.805 541.943 137.705 541.543 137.605L540.543 133.105C539.843 129.905 537.443 129.805 537.043 130.405C536.843 130.705 536.943 131.205 536.943 131.405C536.543 131.305 536.143 131.205 535.743 131.105C535.743 130.205 535.343 128.305 537.643 128.805Z" fill="#482CFF"/>
<path d="M529.443 127.505C530.543 127.705 531.543 128.005 532.643 128.205L532.843 129.305C532.243 129.205 531.543 129.005 530.943 128.905L532.143 134.305C533.043 134.505 533.843 134.705 534.643 134.905L534.843 136.005C532.743 135.505 530.543 135.105 528.443 134.605L528.243 133.505C529.143 133.705 530.043 133.905 530.843 134.005L529.443 127.505ZM528.843 124.605C529.243 124.705 529.743 124.805 530.143 124.905L530.443 126.405C530.043 126.305 529.543 126.205 529.143 126.105L528.843 124.605Z" fill="#482CFF"/>
<path d="M520.944 125.305C522.344 125.605 523.143 126.505 523.643 127.205L523.343 126.005C523.743 126.105 524.143 126.205 524.543 126.205L526.243 134.105C525.843 134.005 525.344 133.905 524.944 133.905L523.944 129.305C523.244 126.405 520.743 126.005 520.243 126.705C520.043 127.005 520.143 127.705 520.243 128.305L521.343 133.205C520.943 133.105 520.443 133.005 520.043 133.005L519.043 128.205L518.944 127.805C518.744 126.905 518.344 124.905 520.944 125.305Z" fill="#482CFF"/>
<path d="M511.943 122.205C512.443 122.305 512.843 122.305 513.343 122.405L513.843 124.705C514.643 124.805 515.343 124.905 516.143 125.105L516.343 126.205C515.543 126.105 514.843 126.005 514.043 125.805L514.843 129.805C515.243 132.005 515.043 132.905 510.943 131.905L510.743 130.805C513.643 131.505 513.843 131.005 513.443 129.405L512.643 125.705C511.643 125.505 510.543 125.405 509.543 125.205L509.343 124.105C510.443 124.305 511.443 124.405 512.443 124.605L511.943 122.205Z" fill="#482CFF"/>
<path d="M505.743 126.405C504.943 123.505 502.243 123.305 501.643 124.305C501.343 124.905 501.443 125.605 501.543 125.905C502.943 126.005 504.343 126.205 505.743 126.405ZM502.843 122.605C507.043 123.205 508.543 129.205 506.643 130.705C505.443 131.605 502.043 131.005 500.743 128.105C501.243 128.205 501.743 128.205 502.143 128.305C503.143 130.205 505.543 130.405 505.943 129.105C506.143 128.505 505.943 127.905 505.943 127.605C504.043 127.405 502.243 127.105 500.243 126.905V126.705C499.743 125.105 499.643 122.205 502.843 122.605Z" fill="#482CFF"/>
<path d="M494.943 128.805C497.543 129.005 496.643 125.005 495.443 123.605C494.243 122.305 491.943 122.105 491.843 124.205C491.743 125.105 492.243 128.505 494.943 128.805ZM489.043 118.805C489.543 118.805 490.043 118.905 490.543 118.905L491.343 122.805C492.443 120.305 496.343 121.605 497.643 125.005C499.143 129.005 497.043 131.005 494.243 129.705C493.643 129.405 493.043 129.005 492.543 128.305L492.843 129.505C492.343 129.505 491.843 129.405 491.343 129.405L489.043 118.805Z" fill="#482CFF"/>
<path d="M472.143 118.205C472.643 118.205 473.143 118.305 473.643 118.305L474.143 120.605C475.043 120.705 475.943 120.705 476.743 120.805L476.943 121.905C476.043 121.805 475.143 121.805 474.343 121.705L475.143 125.705C475.543 127.705 475.543 128.905 470.643 128.205L470.443 127.105C473.843 127.605 473.843 126.905 473.543 125.405L472.743 121.705C471.543 121.605 470.343 121.605 469.243 121.505L469.043 120.405C470.243 120.505 471.443 120.505 472.543 120.605L472.143 118.205Z" fill="#482CFF"/>
<path d="M463.343 126.805C466.443 126.805 465.343 122.905 464.143 121.605C462.843 120.205 459.943 120.105 459.943 122.505C459.943 123.505 460.543 126.705 463.343 126.805ZM461.843 119.505C466.743 119.705 468.143 125.405 466.243 127.205C464.143 129.205 458.143 127.505 458.343 122.305C458.343 121.405 458.743 119.405 461.843 119.505Z" fill="#482CFF"/>
<path d="M440.743 126.505C444.043 126.405 442.743 122.305 441.543 121.205C440.243 120.005 437.343 120.005 437.443 122.705C437.543 124.505 438.543 126.505 440.743 126.505ZM438.943 119.205C440.243 119.205 441.243 119.705 442.143 120.705L441.843 119.505C442.343 119.505 442.943 119.505 443.443 119.505L445.743 130.405C445.243 130.405 444.643 130.405 444.143 130.405L443.243 126.105C441.643 129.005 436.943 127.605 435.843 123.905C435.143 121.205 436.343 119.205 438.943 119.205Z" fill="#482CFF"/>
<path d="M431.143 122.905C430.243 119.805 426.843 120.305 426.143 121.505C425.843 122.105 425.943 122.705 426.043 123.005C427.843 123.005 429.543 122.905 431.143 122.905ZM427.943 119.405C432.943 119.405 434.343 125.005 432.443 126.905C430.943 128.405 426.443 128.205 425.043 125.405C425.643 125.405 426.143 125.405 426.743 125.305C427.843 127.205 431.043 127.005 431.443 125.105C431.543 124.605 431.443 124.105 431.443 123.905C429.143 124.005 426.843 124.005 424.643 124.105C423.743 121.305 424.943 119.505 427.943 119.405Z" fill="#482CFF"/>
<path d="M414.643 119.905C416.043 119.905 417.243 120.305 418.243 121.305L417.943 120.005C418.443 120.005 419.043 120.005 419.543 119.905L421.243 127.805C420.643 127.805 420.043 127.805 419.543 127.905L418.543 123.405C417.843 120.205 414.143 120.805 413.643 121.705C413.443 122.105 413.543 122.505 413.543 122.705C412.943 122.705 412.343 122.805 411.743 122.805C411.543 121.705 411.643 120.105 414.643 119.905Z" fill="#482CFF"/>
<path d="M401.343 118.305C404.043 118.105 405.343 118.705 405.743 120.305L405.943 121.005C407.043 120.905 408.143 120.905 409.143 120.805L409.343 121.905C408.243 122.005 407.143 122.005 406.143 122.105L407.543 128.605C406.943 128.605 406.343 128.705 405.743 128.705L404.343 122.205C403.043 122.305 401.643 122.405 400.243 122.505L400.043 121.405C401.443 121.305 402.743 121.205 404.143 121.105L404.043 120.605C403.743 119.305 402.143 119.305 399.843 119.605H399.743L399.543 118.505C400.543 118.305 401.143 118.305 401.343 118.305Z" fill="#482CFF"/>
<path d="M395.143 124.705C394.143 121.705 390.643 122.305 389.943 123.605C389.643 124.205 389.743 124.905 389.843 125.105C391.543 125.005 393.343 124.905 395.143 124.705ZM391.743 121.405C396.943 121.105 398.443 126.505 396.543 128.605C394.843 130.505 390.043 130.305 388.643 127.705C389.243 127.605 389.843 127.605 390.443 127.505C391.543 129.305 395.043 129.005 395.443 127.005C395.543 126.505 395.443 126.005 395.443 125.805C393.043 126.005 390.643 126.205 388.143 126.405C387.243 123.505 388.643 121.705 391.743 121.405Z" fill="#482CFF"/>
<path d="M379.043 122.605C384.843 122.105 385.843 127.505 384.143 129.605C382.343 131.705 376.743 131.905 375.643 128.405C376.243 128.305 376.843 128.305 377.443 128.205C378.443 130.505 382.143 130.305 382.843 128.505C383.743 126.305 381.743 122.505 378.143 124.005C377.243 124.305 376.943 124.905 377.043 125.805C376.443 125.905 375.843 125.905 375.243 126.005C374.843 123.805 377.043 122.805 379.043 122.605Z" fill="#482CFF"/>
<path d="M366.143 122.205C366.743 122.105 367.343 122.105 368.043 122.005L368.543 124.305C369.643 124.205 370.743 124.105 371.743 123.905L371.943 125.005C370.843 125.105 369.743 125.205 368.743 125.405L369.543 129.405C369.943 131.605 369.543 132.605 363.943 132.905L363.743 131.805C367.843 131.605 367.943 130.905 367.643 129.405L366.843 125.705C365.443 125.905 363.943 126.005 362.543 126.205L362.343 125.105C363.743 124.905 365.243 124.805 366.643 124.605L366.143 122.205Z" fill="#482CFF"/>
<path d="M352.343 126.305C353.943 126.105 355.643 125.905 357.243 125.705L357.443 126.805C356.443 126.905 355.443 127.105 354.443 127.205L355.643 132.605C356.943 132.405 358.243 132.305 359.543 132.105L359.743 133.205C356.543 133.605 353.243 134.105 350.043 134.505L349.843 133.405C351.143 133.205 352.443 133.005 353.843 132.905L352.343 126.305ZM351.643 123.405C352.343 123.305 352.943 123.205 353.643 123.105L353.943 124.605C353.243 124.705 352.643 124.805 351.943 124.905L351.643 123.405Z" fill="#482CFF"/>
<path d="M342.043 134.705C345.943 134.005 344.643 130.005 343.243 129.005C341.643 127.905 337.643 128.405 338.243 131.905C338.343 132.905 339.143 135.205 342.043 134.705ZM340.443 127.405C346.743 126.505 347.343 132.105 345.843 134.005C343.743 136.705 336.743 137.205 336.143 131.905C335.943 129.505 337.443 127.905 340.443 127.405Z" fill="#482CFF"/>
<path d="M326.543 129.705C328.143 129.505 329.343 129.805 330.343 130.605L330.043 129.405C330.643 129.305 331.243 129.205 331.843 129.105L333.543 137.005C332.943 137.105 332.243 137.205 331.643 137.305L330.643 132.705C329.943 129.705 326.043 130.605 325.443 131.605C325.143 132.105 325.243 132.905 325.343 133.205L326.443 138.105C325.843 138.205 325.143 138.305 324.543 138.405L323.543 133.605L323.443 133.205C323.243 132.305 322.843 130.305 326.543 129.705Z" fill="#482CFF"/>
<path d="M611.643 174.405L608.443 159.705C607.343 157.205 606.043 154.805 604.443 152.505L605.243 156.105C605.643 156.705 606.043 157.305 606.343 157.905L607.143 161.605C607.543 162.205 607.843 162.805 608.243 163.405L609.043 167.105C609.343 167.705 609.743 168.305 610.043 168.905L610.843 172.605C611.143 173.305 611.443 173.805 611.643 174.405ZM602.443 147.105C604.543 150.005 606.343 152.905 607.643 156.005L608.443 159.705C608.743 160.305 608.943 160.905 609.243 161.605L613.143 180.005C612.943 179.405 612.643 178.705 612.343 178.105L613.143 181.805C611.743 178.705 610.043 175.805 607.943 172.905L607.143 169.205C608.843 171.505 610.243 173.805 611.543 176.305L610.743 172.705C610.443 172.105 610.143 171.505 609.743 170.905L608.943 167.205C608.643 166.605 608.243 166.005 607.843 165.405L607.043 161.705C606.643 161.105 606.343 160.505 605.943 160.005L605.143 156.305C604.743 155.705 604.343 155.205 603.943 154.605L607.143 169.305C606.743 168.705 606.243 168.205 605.843 167.605L601.843 149.205C602.343 149.805 602.743 150.305 603.143 150.905L602.443 147.105Z" fill="#482CFF"/>
<path d="M601.443 156.905C601.943 157.405 602.443 158.005 602.943 158.505L605.343 169.605C601.943 165.705 597.843 162.105 593.143 158.705L592.343 155.105C596.443 158.005 600.043 161.105 603.043 164.405L601.443 156.905ZM601.343 156.705L601.443 156.805C601.443 156.805 601.443 156.805 601.343 156.705ZM591.943 145.305C595.143 147.805 598.043 150.405 600.643 153.105L601.443 156.705C598.943 154.005 595.943 151.405 592.743 148.905L591.943 145.305ZM591.843 145.205L591.943 145.305C591.843 145.305 591.843 145.305 591.843 145.205ZM588.243 136.505C588.943 137.005 589.543 137.505 590.243 137.905L591.843 145.205C591.243 144.705 590.543 144.205 589.843 143.805L588.243 136.505ZM589.443 134.205C593.343 137.205 596.743 140.305 599.643 143.605L600.443 147.205C597.543 143.905 594.143 140.705 590.243 137.805L589.443 134.205Z" fill="#482CFF"/>
<path d="M586.343 144.605L586.443 144.705C586.443 144.705 586.443 144.705 586.343 144.605ZM583.243 129.905C583.943 130.405 584.643 130.805 585.343 131.305L588.543 146.005C587.843 145.505 587.143 145.105 586.443 144.605L583.243 129.905ZM568.643 122.105C569.543 122.505 570.343 122.905 571.243 123.305L574.443 138.105C578.743 140.205 582.743 142.405 586.443 144.705L587.243 148.305C583.543 146.005 579.543 143.805 575.243 141.705L576.843 149.105C576.043 148.705 575.143 148.305 574.243 147.905L568.643 122.105Z" fill="#482CFF"/>
<path d="M578.943 61.8053C581.643 64.4053 584.043 67.0053 586.043 69.8053C587.843 76.7053 589.543 83.1053 591.943 92.5053C593.643 103.305 594.343 108.605 596.043 120.205C596.543 120.805 597.043 121.505 597.443 122.105C594.743 104.405 592.843 93.2053 589.843 76.0053C591.343 78.9053 592.543 81.9053 593.343 85.0053C597.743 106.105 600.643 121.005 604.443 142.005C603.043 139.005 601.243 136.105 599.043 133.405C591.943 107.105 586.443 87.7053 578.943 61.8053Z" fill="#482CFF"/>
<path d="M565.843 51.8053C569.343 54.0053 572.443 56.2053 575.343 58.6053L589.244 123.405C586.344 121.005 583.144 118.805 579.744 116.605L565.843 51.8053ZM562.843 39.1053C561.243 33.1053 563.343 31.0053 565.343 32.1053C565.843 32.4053 566.244 32.7053 566.744 33.1053L567.044 33.4053C572.444 39.3053 574.944 51.5053 571.744 51.7053C569.144 51.8053 564.443 45.1053 562.843 39.1053Z" fill="#482CFF"/>
<path d="M547.843 41.3053C557.743 45.6053 562.543 51.5053 564.943 62.3053L566.343 69.0053C568.643 79.9053 568.943 81.1053 560.043 84.1053C555.143 85.7053 555.143 85.7053 555.543 87.6053L555.843 89.1053C557.043 94.2053 560.243 93.6053 560.443 93.5053C560.943 93.0053 560.543 91.4053 560.443 90.8053L559.643 87.3053C563.843 89.2053 567.843 91.1053 571.443 93.2053L573.243 101.405C575.843 113.905 569.043 114.905 553.243 104.405C547.543 100.605 544.443 96.0053 542.843 88.9053L541.043 80.7053C539.143 71.9053 539.343 70.8053 550.543 66.3053C554.843 64.9053 554.843 64.9053 554.443 63.0053L554.043 61.2053C552.943 56.3053 549.843 56.6053 549.543 57.0053C549.143 57.5053 549.443 59.0053 549.543 59.5053L550.343 63.4053C545.943 61.6053 541.243 60.0053 536.343 58.4053L534.543 50.0053C533.843 46.1053 531.543 34.4053 547.843 41.3053Z" fill="#482CFF"/>
<path d="M510.743 31.4053C516.343 32.6053 521.643 33.9053 526.743 35.4053L540.643 100.205C535.543 98.7053 530.243 97.4053 524.643 96.2053L510.743 31.4053ZM507.543 18.7053C506.043 13.7053 508.443 10.0053 512.943 10.4053C513.743 10.6053 514.443 10.8053 515.243 11.0053L515.743 11.2053C524.343 15.5053 527.143 26.8053 521.743 29.0053C517.243 30.7053 509.443 25.1053 507.543 18.7053Z" fill="#482CFF"/>
<path d="M494.743 77.4053C497.143 77.7053 497.743 76.8053 497.243 74.2053L490.943 44.9053C489.743 39.7053 485.043 40.6053 484.343 41.5053C483.843 42.2053 484.043 43.5053 484.143 44.0053L490.443 73.3053C491.043 75.5053 491.943 77.0053 494.743 77.4053ZM483.543 25.3053C498.643 27.4053 505.243 32.3053 507.843 43.3053L516.143 81.9053C520.843 105.805 479.543 87.6053 479.143 87.3053C473.743 83.6053 472.543 78.4053 471.943 76.2053L463.643 37.6053C462.243 30.1053 463.443 22.7053 483.543 25.3053Z" fill="#482CFF"/>
<path d="M418.843 21.7053C421.843 21.7053 429.943 21.8053 435.143 30.9053L433.543 23.3053C440.743 23.4053 447.843 23.7053 454.643 24.1053L468.543 88.8053C461.643 88.4053 454.643 88.1053 447.443 88.0053L436.343 36.3053C434.743 33.0053 429.443 33.8053 428.843 35.4053C428.643 36.1053 428.743 36.9053 428.843 37.4053L439.643 87.9053C432.343 87.9053 424.743 88.0053 417.143 88.2053L406.043 36.4053C403.443 22.9053 415.143 21.8053 418.843 21.7053Z" fill="#482CFF"/>
<path d="M379.743 79.6053C382.943 79.3053 383.743 78.3053 383.243 75.8053L379.743 59.3053C378.543 54.1053 372.043 56.2053 371.143 57.7053C370.643 58.6053 370.843 59.6053 370.943 60.1053L374.543 76.6053C375.043 78.7053 376.043 79.9053 379.743 79.6053ZM367.643 24.2053C389.043 22.5053 394.243 27.2053 396.443 36.6053L397.443 41.1053C390.343 41.4053 383.243 41.9053 375.943 42.5053L375.243 39.3053C374.043 34.7053 367.943 36.8053 367.243 37.9053C366.543 38.8053 366.843 40.1053 366.943 40.8053L369.743 53.8053C371.743 39.6053 393.743 40.6053 400.343 49.6053C402.343 52.3053 403.043 55.2053 403.343 56.6053L407.443 75.6053C410.943 93.7053 388.043 93.1053 380.643 88.0053C377.843 86.0053 376.543 83.9053 375.943 82.9053L377.643 90.9053C369.443 91.7053 361.143 92.6053 352.743 93.6053L341.543 42.0053C340.143 34.4053 342.143 26.4053 367.643 24.2053Z" fill="#482CFF"/>
<path d="M287.843 35.4054C290.943 34.8054 300.343 33.2054 305.743 41.6054L304.143 34.0054C310.643 32.9054 317.143 31.8054 323.743 30.9054C325.743 30.6054 327.743 30.3054 329.743 30.0054L343.643 94.8054C341.643 95.1054 339.643 95.4054 337.643 95.7054C331.043 96.7054 324.543 97.7054 318.043 98.8054L306.943 47.1054C305.043 44.0054 299.843 46.0054 299.343 47.5054C299.143 48.2054 299.243 49.0054 299.343 49.4054L302.443 63.9054C294.043 65.4054 285.643 67.1054 277.343 68.9054L273.943 53.0054C271.443 39.6054 283.943 36.1054 287.843 35.4054Z" fill="#482CFF"/>
<path d="M208.344 56.5053C216.044 54.2053 223.844 51.9053 231.844 49.8053L242.644 100.305C244.044 105.505 250.644 101.505 251.144 100.505C251.644 99.6053 251.343 98.5053 251.243 98.0053L240.443 47.5053C248.443 45.4053 256.643 43.5053 264.843 41.7053L275.943 93.5053C279.243 110.505 256.343 116.505 247.743 110.605C245.644 109.105 244.544 107.505 244.044 106.605L246.644 118.805C248.044 124.005 254.544 120.305 255.144 119.205C255.644 118.305 255.444 117.305 255.344 116.805L255.243 116.405C263.243 114.305 271.444 112.405 279.644 110.605L280.044 112.305C284.044 133.805 234.344 138.305 228.344 134.405C224.844 132.105 223.944 128.305 223.544 126.705L208.344 56.5053Z" fill="#482CFF"/>
<path d="M137.943 142.905C158.643 133.505 181.343 124.705 205.443 116.805L207.443 125.905C183.343 133.805 160.643 142.505 139.943 152.005L137.943 142.905ZM137.643 142.805C137.743 142.805 137.843 142.705 137.943 142.705V142.905C137.843 142.905 137.743 143.005 137.643 143.005V142.805ZM123.643 129.205C126.943 127.605 130.243 126.005 133.643 124.505L137.543 142.805C134.143 144.405 130.843 145.905 127.543 147.505L123.643 129.205ZM133.643 124.205C133.743 124.205 133.843 124.105 133.943 124.105L134.043 124.405C133.943 124.405 133.843 124.505 133.743 124.505L133.643 124.205ZM131.943 115.005C149.143 107.105 167.743 99.7053 187.443 92.9053L189.443 102.005C169.743 108.805 151.143 116.205 133.943 124.105L131.943 115.005ZM131.643 115.005C131.743 115.005 131.843 114.905 131.943 114.905V115.105C131.843 115.105 131.743 115.205 131.643 115.205V115.005ZM117.643 101.405C120.943 99.8053 124.243 98.2053 127.643 96.7053L131.543 115.005C128.143 116.605 124.843 118.105 121.543 119.705L117.643 101.405ZM127.643 96.4053C127.743 96.4053 127.743 96.3053 127.843 96.3053L127.943 96.6053C127.843 96.6053 127.843 96.7053 127.743 96.7053L127.643 96.4053ZM125.943 87.3053C146.643 77.8053 169.343 69.0053 193.543 61.2053L195.443 70.2053C171.243 78.1053 148.543 86.9053 127.843 96.3053L125.943 87.3053Z" fill="#482CFF"/>
<path d="M108.043 157.605L98.1434 111.405C82.7434 119.805 68.8434 128.505 56.8434 137.505L66.7434 183.705C78.7434 174.705 92.5434 165.905 108.043 157.605ZM54.7434 128.205C69.1434 117.405 86.3434 107.005 105.643 97.1053L119.543 161.905C100.243 171.805 83.1434 182.205 68.7434 193.005L66.7434 183.705C64.3434 185.505 61.9434 187.305 59.6434 189.205L49.7434 143.005C52.0434 141.205 54.3434 139.405 56.7434 137.605L54.7434 128.205Z" fill="#482CFF"/>
<path d="M176.543 177.305C183.543 174.205 182.043 166.505 178.143 164.905C173.543 163.005 166.743 168.505 169.743 175.205C170.843 177.805 173.443 178.605 176.543 177.305ZM178.443 155.905C179.143 155.605 179.843 155.405 180.543 155.105L184.843 175.305C184.143 175.605 183.443 175.805 182.743 176.105L182.243 173.505C182.243 173.505 182.243 173.505 182.143 173.505C180.143 178.805 170.843 182.605 167.943 176.605C163.943 168.405 172.543 161.305 178.743 163.205C179.443 163.405 179.843 163.705 180.143 163.905L178.443 155.905Z" fill="#482CFF"/>
<path d="M148.143 174.705C148.843 174.405 149.543 174.105 150.243 173.805C152.643 176.805 155.843 180.905 158.243 183.905C159.043 179.505 160.143 173.605 160.943 169.105C161.643 168.805 162.443 168.505 163.143 168.205C161.743 175.205 160.943 179.005 159.743 185.605C160.643 186.505 161.043 187.905 162.443 188.305C163.243 188.505 164.043 188.205 165.443 187.305L165.743 188.905C161.843 191.405 160.543 190.205 157.343 186.205C154.243 182.405 151.143 178.505 148.143 174.705Z" fill="#482CFF"/>
<path d="M124.344 186.105C124.944 185.805 125.643 185.405 126.243 185.105C128.543 188.105 131.643 192.105 133.943 195.005C134.643 190.505 135.644 184.605 136.344 180.105C137.044 179.805 137.644 179.505 138.344 179.205C136.844 188.205 136.543 190.105 135.443 196.605C134.743 196.905 134.143 197.305 133.443 197.605C127.743 190.405 127.744 190.405 124.344 186.105Z" fill="#482CFF"/>
<path d="M119.843 188.405C120.443 188.105 120.943 187.805 121.543 187.505L124.643 202.005C124.043 202.305 123.543 202.605 122.943 202.905L119.843 188.405ZM118.543 182.805C119.143 182.505 119.843 182.105 120.443 181.805L120.943 184.305C120.343 184.605 119.643 185.005 119.043 185.305L118.543 182.805Z" fill="#482CFF"/>
<path d="M110.744 192.905C116.144 190.105 117.244 194.205 116.644 196.205C116.144 198.205 114.344 199.605 112.044 201.505C106.244 206.205 109.644 209.105 113.444 206.805C116.244 205.105 116.544 203.105 116.544 201.305C117.144 201.005 117.644 200.705 118.244 200.405C119.044 207.205 110.244 211.105 107.944 209.005C105.744 206.905 106.944 203.905 111.544 200.005C117.544 194.905 113.544 193.905 113.444 193.905C112.044 193.605 107.744 195.405 107.744 199.305C107.744 199.405 107.744 199.605 107.744 199.705C107.244 200.005 106.644 200.305 106.144 200.605C106.144 199.105 105.944 195.505 110.744 192.905Z" fill="#482CFF"/>
<path d="M96.2434 201.405C103.243 197.605 105.343 206.205 103.943 210.905C102.543 215.805 96.0434 220.405 93.2434 215.805C93.0434 215.505 92.8434 215.105 92.7434 214.805C93.2434 214.505 93.8434 214.105 94.3434 213.805C96.3434 218.405 100.843 214.705 102.043 211.805C103.743 207.405 101.643 200.505 97.1434 202.605C95.5434 203.305 93.6434 205.005 93.4434 208.805C92.9434 209.105 92.4434 209.405 91.9434 209.805C91.8434 208.405 91.6434 204.205 96.2434 201.405Z" fill="#482CFF"/>
<path d="M85.7434 223.905C91.0434 219.905 88.6434 211.305 85.5434 210.905C80.8434 210.305 78.1434 219.105 81.5434 223.605C82.2434 224.505 83.6434 225.405 85.7434 223.905ZM82.7434 210.205C89.4434 206.005 91.0434 215.205 90.1434 219.305C88.9434 224.605 82.8434 229.405 79.9434 224.605C78.0434 221.505 77.4434 213.805 82.7434 210.205Z" fill="#482CFF"/>
<path d="M68.5434 218.305L68.2434 216.705C67.9434 216.905 67.7434 217.105 67.4434 217.305C66.2434 218.305 66.8434 219.205 67.1434 219.205C67.3434 219.205 67.6434 219.005 67.8434 218.805C68.0434 218.705 68.2434 218.505 68.5434 218.305ZM67.1434 216.705C67.6434 216.305 68.1434 215.905 68.6434 215.605L69.7434 220.705C69.5434 220.905 69.3434 221.005 69.1434 221.205L68.6434 219.005C68.4434 219.205 68.2434 219.405 67.9434 219.505L67.4434 222.505C67.2434 222.705 67.0434 222.805 66.8434 223.005C67.0434 222.105 67.2434 220.805 67.4434 219.905C65.9434 220.705 66.0434 218.605 66.1434 218.105C66.3434 217.405 66.9434 216.905 67.1434 216.705ZM68.6434 222.905C71.5434 220.405 71.1434 215.205 68.7434 214.905C65.9434 214.605 63.8434 220.405 65.9434 222.805C66.6434 223.605 67.6434 223.705 68.6434 222.905ZM66.9434 214.705C70.1434 212.405 71.8434 215.705 71.3434 219.005C70.6434 223.305 67.0434 225.905 65.2434 223.305C63.6434 221.105 64.5434 216.605 66.9434 214.705Z" fill="#482CFF"/>
</g>
<mask id="mask1_28_206" style="mask-type:luminance" maskUnits="userSpaceOnUse" x="0" y="64" width="619" height="319">
<path d="M28.9434 319.005L0.443359 186.705C11.6434 239.005 124.143 263.705 270.443 242.405C432.843 218.705 575.443 147.005 588.743 82.4054C590.043 76.0054 590.043 69.8054 588.843 64.0054L617.243 196.405C618.443 202.205 618.443 208.305 617.143 214.805C603.743 279.405 461.243 351.105 298.843 374.805C152.643 396.105 40.1434 371.305 28.9434 319.005Z" fill="white"/>
</mask>
<g mask="url(#mask1_28_206)">
<path d="M270.043 345.005C269.343 345.105 268.543 345.205 267.843 345.305L265.243 350.505L260.543 346.105C259.743 346.205 258.943 346.305 258.243 346.305L264.543 351.905L265.443 355.905C266.143 355.805 266.743 355.805 267.443 355.705L266.543 351.605L270.043 345.005Z" fill="#482CFF"/>
<path d="M279.043 353.505C275.043 353.905 274.643 349.605 275.743 348.305C276.843 347.005 281.143 346.305 281.543 350.505C281.643 352.205 280.743 353.205 279.043 353.505ZM277.443 346.205C271.443 347.105 273.143 352.305 274.943 353.705C277.843 355.905 283.943 354.605 283.443 350.205C283.143 347.905 281.443 345.605 277.443 346.205Z" fill="#482CFF"/>
<path d="M295.043 344.005C294.443 344.105 293.743 344.205 293.143 344.305L294.143 348.805C294.743 351.705 290.743 352.105 289.743 351.405C289.243 351.005 289.043 350.305 288.943 350.105L287.843 345.005C287.243 345.105 286.543 345.205 285.943 345.305L286.943 350.105L287.043 350.505C287.243 351.505 287.543 352.805 289.743 353.005C290.043 353.005 293.143 353.305 294.443 351.305C294.543 351.205 294.543 351.105 294.643 351.005L294.943 352.205C295.543 352.105 296.143 352.005 296.743 351.905L295.043 344.005Z" fill="#482CFF"/>
<path d="M305.143 342.105C304.143 342.305 302.743 342.705 301.943 344.305L301.643 343.005C301.043 343.105 300.443 343.205 299.943 343.305L301.643 351.205C302.243 351.105 302.943 351.005 303.543 350.905L302.543 346.405C301.943 343.205 306.043 343.005 307.043 343.705C307.443 344.005 307.643 344.505 307.643 344.605C308.243 344.505 308.943 344.405 309.543 344.305C309.143 343.005 308.343 341.605 305.143 342.105Z" fill="#482CFF"/>
<path d="M330.943 338.105C329.343 338.405 327.743 338.705 326.143 339.005L326.343 340.105C327.343 339.905 328.343 339.705 329.243 339.505L330.443 344.905C329.143 345.105 327.843 345.405 326.543 345.605L326.743 346.705C329.943 346.105 333.143 345.505 336.343 344.805L336.143 343.705C334.843 344.005 333.543 344.205 332.243 344.505L330.943 338.105ZM330.443 335.105C329.743 335.205 329.143 335.405 328.443 335.505L328.743 337.005C329.443 336.905 330.043 336.705 330.743 336.605L330.443 335.105Z" fill="#482CFF"/>
<path d="M343.543 342.605C340.243 343.205 339.243 339.405 340.443 337.605C341.343 336.205 345.143 335.205 345.843 339.105C346.043 340.105 345.943 342.005 343.543 342.605ZM346.243 331.905C345.643 332.005 345.043 332.205 344.343 332.305L345.143 336.205C342.543 334.005 337.643 335.905 337.943 339.805C338.343 344.705 343.843 344.805 345.743 342.505C346.043 342.105 346.243 341.805 346.243 341.605L346.543 342.805C347.143 342.705 347.843 342.505 348.443 342.405L346.243 331.905Z" fill="#482CFF"/>
<path d="M353.043 336.605C352.643 333.505 356.443 332.905 357.743 334.005C358.343 334.405 358.443 335.105 358.543 335.405C356.643 335.705 354.843 336.205 353.043 336.605ZM354.943 332.405C349.443 333.705 350.743 339.105 353.143 340.505C355.643 342.005 360.443 340.405 360.643 337.305C360.043 337.405 359.443 337.605 358.843 337.705C358.443 339.805 354.843 340.505 353.643 338.705C353.343 338.305 353.243 337.905 353.243 337.605C355.743 337.005 358.143 336.505 360.643 335.905C360.243 333.005 358.143 331.705 354.943 332.405Z" fill="#482CFF"/>
<path d="M368.043 337.005C365.643 337.605 365.843 335.705 366.043 335.305C366.243 334.905 366.743 334.605 368.243 334.105C368.243 334.105 369.743 333.605 370.543 333.105L370.843 334.305C370.943 335.705 369.543 336.605 368.043 337.005ZM367.343 329.505C363.843 330.405 363.643 332.105 363.743 333.005V333.105C364.243 333.005 364.843 332.805 365.343 332.705C364.943 330.705 368.743 330.205 369.543 330.705C369.543 330.705 371.143 331.905 368.143 333.005C366.643 333.505 365.043 334.105 364.343 335.005C363.643 335.905 363.943 337.205 364.543 337.805C365.643 339.005 369.143 338.705 371.243 336.105C371.343 336.605 371.643 337.205 373.243 336.805L373.743 336.705L374.243 336.505L374.043 335.505L373.743 335.605C372.943 335.905 372.843 335.605 372.743 335.005L371.843 330.905C371.643 329.805 370.943 328.605 367.343 329.505Z" fill="#482CFF"/>
<path d="M379.743 326.405C375.143 327.705 375.843 330.305 376.943 330.905C377.443 331.205 378.243 331.305 379.643 331.205C382.343 331.005 382.743 330.905 383.143 331.105C383.643 331.305 383.943 332.005 383.343 332.605C382.643 333.405 379.143 334.905 378.343 332.805C377.743 332.905 377.243 333.105 376.643 333.205C377.643 336.905 384.143 334.405 385.143 332.605C385.143 332.605 387.143 329.105 381.643 329.605C378.943 329.805 378.743 329.805 378.343 329.705C377.843 329.505 377.643 328.805 378.043 328.305C378.743 327.505 382.043 326.505 382.443 328.105C383.043 327.905 383.643 327.805 384.143 327.605C384.043 326.205 382.343 325.705 379.743 326.405Z" fill="#482CFF"/>
<path d="M394.643 328.605C393.743 328.905 392.843 329.105 391.843 329.405L392.343 331.605C392.743 331.505 393.243 331.405 393.643 331.205L393.743 331.505C394.043 332.805 393.443 333.305 392.343 333.705L392.543 334.705C394.643 334.005 395.543 332.805 395.143 331.005L394.643 328.605Z" fill="#482CFF"/>
<path d="M154.843 375.005C151.743 374.705 151.243 370.105 152.243 369.205C153.643 368.005 156.843 370.005 156.643 373.405C156.543 374.005 156.243 375.105 154.843 375.005ZM153.543 367.705C152.543 367.605 151.843 367.805 151.243 369.005L150.943 367.805C150.443 367.805 149.943 367.705 149.443 367.705L151.743 378.605C152.243 378.605 152.743 378.705 153.243 378.705L152.343 374.405C154.643 377.205 157.743 376.405 158.043 373.905C158.343 372.005 157.143 368.005 153.543 367.705Z" fill="#482CFF"/>
<path d="M164.543 368.505C163.743 368.505 162.643 368.605 162.043 369.905L161.743 368.605C161.243 368.605 160.843 368.505 160.343 368.505L162.043 376.405C162.543 376.405 163.043 376.505 163.543 376.505L162.543 372.005C161.943 368.805 165.143 369.605 165.743 370.105C166.343 370.505 166.443 371.105 166.543 371.405C167.043 371.405 167.543 371.505 168.143 371.505C167.743 369.505 166.643 368.605 164.543 368.505Z" fill="#482CFF"/>
<path d="M175.143 369.605C173.843 369.505 172.443 369.505 171.143 369.405L171.343 370.505C172.143 370.505 172.943 370.605 173.843 370.605L175.043 376.005C173.943 376.005 172.943 375.905 171.843 375.905L172.043 377.005C174.743 377.105 177.343 377.205 180.043 377.305L179.843 376.205C178.743 376.205 177.643 376.105 176.543 376.105L175.143 369.605ZM174.543 366.605C173.943 366.605 173.443 366.605 172.843 366.505L173.143 368.005C173.743 368.005 174.243 368.005 174.843 368.105L174.543 366.605Z" fill="#482CFF"/>
<path d="M185.543 369.305C185.043 369.305 183.543 369.305 182.943 370.705L182.643 369.505C182.143 369.505 181.643 369.505 181.143 369.505L182.843 377.405C183.343 377.405 183.943 377.405 184.443 377.405L183.443 372.905C182.843 370.005 186.043 370.305 186.843 370.805C187.443 371.205 187.643 372.005 187.843 372.605L188.943 377.505C189.443 377.505 190.043 377.505 190.543 377.505L189.543 372.705L189.443 372.305C189.143 371.305 188.643 369.405 185.543 369.305Z" fill="#482CFF"/>
<path d="M195.643 367.705C195.043 367.705 194.543 367.705 193.943 367.705L194.443 370.005C193.543 370.005 192.543 370.005 191.643 370.005L191.843 371.105C192.743 371.105 193.743 371.105 194.643 371.105L195.443 375.105C196.043 377.705 197.143 378.205 201.543 377.905L201.343 376.805C197.843 377.205 197.443 376.405 197.143 374.905L196.343 371.205C197.643 371.205 198.843 371.205 200.143 371.205L199.943 370.105C198.643 370.105 197.443 370.105 196.143 370.105L195.643 367.705Z" fill="#482CFF"/>
<path d="M205.743 372.905C205.343 369.905 208.643 370.205 209.743 371.105C210.443 371.605 210.643 372.305 210.743 372.805C209.043 372.805 207.343 372.905 205.743 372.905ZM207.443 369.305C202.543 369.505 203.643 374.605 205.743 376.505C207.943 378.505 212.643 378.005 212.843 375.105C212.243 375.105 211.743 375.105 211.143 375.105C210.843 376.905 207.743 377.005 206.543 375.205C206.143 374.705 206.043 374.105 205.943 373.905C208.143 373.905 210.443 373.805 212.743 373.805C212.343 370.905 210.343 369.305 207.443 369.305Z" fill="#482CFF"/>
<path d="M220.443 376.305C217.243 376.405 216.343 372.105 217.543 370.805C218.743 369.505 222.443 370.005 222.543 374.005C222.643 374.805 222.343 376.205 220.443 376.305ZM222.843 366.405C222.243 366.405 221.743 366.505 221.143 366.505L221.943 370.405C219.543 368.005 215.243 368.705 215.243 372.305C215.243 377.305 220.743 378.605 222.543 376.705C222.843 376.405 222.943 376.105 223.043 376.005L223.343 377.205C223.943 377.205 224.543 377.205 225.043 377.105L222.843 366.405Z" fill="#482CFF"/>
<path d="M242.943 365.905C242.343 365.905 241.743 366.005 241.143 366.005L241.643 368.305C240.643 368.405 239.543 368.405 238.543 368.505L238.743 369.605C239.743 369.505 240.843 369.505 241.843 369.405L242.643 373.405C243.243 376.005 244.343 376.405 249.143 375.705L248.943 374.605C244.943 375.305 244.743 374.405 244.443 373.005L243.643 369.305C245.043 369.205 246.343 369.105 247.743 369.005L247.543 367.905C246.143 368.005 244.843 368.105 243.443 368.205L242.943 365.905Z" fill="#482CFF"/>
<path d="M257.243 373.905C253.443 374.205 253.043 369.805 253.943 368.605C254.943 367.305 259.243 366.805 259.643 371.005C259.843 372.005 259.643 373.705 257.243 373.905ZM255.743 366.605C249.943 367.205 251.543 372.505 253.443 374.005C255.843 376.005 262.043 375.505 261.643 371.105C261.443 368.705 259.743 366.205 255.743 366.605Z" fill="#482CFF"/>
<path d="M283.143 371.005C279.343 371.405 278.943 367.105 279.843 365.805C280.943 364.305 284.843 364.005 285.443 367.905C285.643 369.605 284.743 370.805 283.143 371.005ZM281.843 363.705C280.543 363.905 279.643 364.305 278.843 365.605L278.543 364.405C277.943 364.505 277.243 364.605 276.643 364.605L278.943 375.505C279.543 375.405 280.243 375.305 280.843 375.305L279.943 371.005C282.943 373.505 287.543 371.605 287.243 368.005C287.143 365.605 285.343 363.305 281.843 363.705Z" fill="#482CFF"/>
<path d="M292.143 365.905C291.843 362.805 295.743 362.605 297.043 363.605C297.643 364.105 297.743 364.805 297.843 365.005C297.543 365.105 297.143 365.105 296.843 365.205C295.243 365.505 293.743 365.705 292.143 365.905ZM294.243 362.005C288.743 362.905 289.743 368.105 292.043 369.705C294.543 371.505 299.843 370.305 300.143 367.205C299.543 367.305 298.843 367.405 298.243 367.505C297.843 369.505 294.043 370.005 292.843 368.105C292.543 367.705 292.443 367.305 292.443 367.005C293.943 366.805 295.543 366.605 297.143 366.305C298.143 366.205 299.143 366.005 300.143 365.905C299.743 363.005 297.643 361.505 294.243 362.005Z" fill="#482CFF"/>
<path d="M308.943 359.805C307.943 360.005 306.543 360.405 305.743 362.005L305.443 360.705C304.843 360.805 304.243 360.905 303.743 361.005L305.443 368.905C306.043 368.805 306.743 368.705 307.343 368.605L306.343 364.105C305.743 360.905 309.843 360.705 310.843 361.405C311.243 361.705 311.443 362.205 311.443 362.305C312.043 362.205 312.743 362.105 313.343 362.005C312.943 360.605 312.143 359.205 308.943 359.805Z" fill="#482CFF"/>
<path d="M322.243 355.005C318.643 355.705 318.343 356.805 318.543 357.905L318.743 358.605C317.543 358.805 316.443 359.005 315.243 359.205L315.443 360.305C316.643 360.105 317.743 359.905 318.943 359.705L320.343 366.205C320.943 366.105 321.643 366.005 322.243 365.905L320.843 359.405C322.243 359.105 323.743 358.905 325.143 358.605L324.943 357.505C323.543 357.805 322.043 358.005 320.643 358.305L320.543 357.805C320.243 356.405 322.243 356.105 324.443 355.805H324.643L324.443 354.705C323.743 354.805 322.943 354.905 322.243 355.005Z" fill="#482CFF"/>
<path d="M331.243 359.505C330.843 356.505 334.643 356.005 335.943 356.905C336.543 357.405 336.743 358.105 336.843 358.405C335.043 358.805 333.143 359.105 331.243 359.505ZM333.343 355.405C327.943 356.505 328.943 361.705 331.243 363.305C333.943 365.105 338.943 363.305 339.143 360.505C338.543 360.605 337.943 360.705 337.243 360.905C336.943 362.905 333.343 363.505 332.043 361.805C331.743 361.405 331.543 360.905 331.543 360.605C334.043 360.105 336.543 359.605 339.043 359.105V358.905C338.943 357.705 337.843 354.505 333.343 355.405Z" fill="#482CFF"/>
<path d="M346.243 352.805C340.343 354.205 341.943 359.405 344.043 360.805C346.643 362.505 352.343 360.905 351.943 357.205C351.343 357.305 350.743 357.505 350.143 357.605C350.243 360.105 346.643 360.905 345.143 359.605C343.743 358.405 342.843 354.205 347.143 353.805C348.443 353.705 349.143 354.105 349.443 355.105C350.043 355.005 350.643 354.805 351.243 354.705C350.743 352.605 348.343 352.405 346.243 352.805Z" fill="#482CFF"/>
<path d="M358.343 348.305C357.743 348.405 357.143 348.605 356.543 348.705L357.043 351.005C355.943 351.205 354.943 351.505 353.843 351.705L354.043 352.805C355.143 352.605 356.143 352.305 357.243 352.105L358.043 356.105C358.643 358.705 359.843 358.905 364.643 357.505L364.443 356.405C360.543 357.705 360.143 357.005 359.843 355.505L359.043 351.805C360.443 351.505 361.843 351.205 363.243 350.805L363.043 349.705C361.643 350.005 360.243 350.305 358.843 350.705L358.343 348.305Z" fill="#482CFF"/>
<path d="M372.643 347.305C371.143 347.705 369.543 348.105 367.943 348.405L368.143 349.505C369.043 349.305 370.043 349.005 370.943 348.805L372.143 354.205C370.943 354.505 369.643 354.805 368.443 355.105L368.643 356.205C371.743 355.505 374.843 354.705 377.943 353.905L377.743 352.805C376.543 353.105 375.243 353.405 374.043 353.705L372.643 347.305ZM372.043 344.405C371.443 344.605 370.743 344.705 370.143 344.905L370.443 346.405C371.043 346.205 371.743 346.105 372.343 345.905L372.043 344.405Z" fill="#482CFF"/>
<path d="M385.143 351.305C381.443 352.205 380.943 348.005 381.843 346.505C382.643 345.105 386.443 343.605 387.343 347.305C388.043 350.105 386.243 351.005 385.143 351.305ZM383.643 344.005C378.043 345.605 379.243 350.905 381.743 352.205C384.343 353.605 390.843 351.705 389.143 346.405C388.443 344.205 386.343 343.305 383.643 344.005Z" fill="#482CFF"/>
<path d="M396.543 340.505C395.843 340.705 394.443 341.105 393.643 342.905L393.343 341.705C392.743 341.905 392.243 342.005 391.643 342.205L393.343 350.105C393.943 349.905 394.543 349.805 395.143 349.605L394.143 345.105C393.543 342.105 397.243 341.305 398.143 341.905C398.643 342.305 398.843 343.005 398.843 343.305L399.943 348.205C400.543 348.005 401.143 347.905 401.743 347.705L400.743 342.905L400.643 342.505C400.343 341.405 399.943 339.505 396.543 340.505Z" fill="#482CFF"/>
<path d="M52.5433 339.905L49.3433 325.205C52.2433 327.105 55.3433 328.905 58.6433 330.605L59.4433 334.205C58.6433 333.805 57.8433 333.305 57.0433 332.905L57.8433 336.605C57.0433 336.205 56.2433 335.705 55.4433 335.305L56.2433 339.005C55.4433 338.605 54.7433 338.105 53.9433 337.605L54.7433 341.305C53.9433 340.805 53.2433 340.405 52.5433 339.905ZM60.4433 328.105C56.1433 326.005 52.2433 323.805 48.6433 321.505L49.4433 325.205C48.7433 324.705 48.0433 324.305 47.3433 323.805L51.2433 342.205C51.9433 342.705 52.6433 343.205 53.3433 343.605L54.1433 347.305C57.7433 349.605 61.6433 351.805 65.9433 353.905L65.1433 350.205C61.7433 348.505 58.5433 346.805 55.5433 345.005L54.7433 341.405C55.5433 341.905 56.2433 342.305 57.0433 342.805L56.2433 339.105C57.0433 339.605 57.8433 340.005 58.6433 340.405L57.8433 336.705C58.6433 337.105 59.4433 337.605 60.2433 338.005L59.4433 334.305C60.2433 334.705 61.0433 335.105 61.9433 335.505L65.1433 350.205C66.0433 350.605 66.8433 351.005 67.7433 351.405L63.7433 333.005C62.8433 332.605 61.9433 332.205 61.1433 331.805L60.4433 328.105Z" fill="#482CFF"/>
<path d="M71.6433 346.505C70.7433 346.105 69.8433 345.705 68.9433 345.405L71.3433 356.505C77.6433 359.305 84.5433 361.805 92.0433 364.005L91.2433 360.405C84.8433 358.505 78.8433 356.405 73.2433 354.105L71.6433 346.505ZM71.6433 346.505C71.6433 346.605 71.6433 346.605 71.6433 346.505V346.505ZM85.6433 348.205C80.4433 346.605 75.5433 344.805 70.9433 342.905L71.7433 346.505C76.3433 348.405 81.2433 350.205 86.4433 351.805L85.6433 348.205ZM85.7433 348.205C85.6433 348.105 85.6433 348.205 85.7433 348.205V348.205ZM87.2433 341.805C86.1433 341.505 85.1433 341.205 84.1433 340.805L85.7433 348.105C86.7433 348.405 87.8433 348.705 88.8433 349.105L87.2433 341.805ZM84.1433 340.805C84.1433 340.905 84.1433 340.905 84.1433 340.905V340.805ZM83.2433 337.105C76.9433 335.105 71.1433 332.905 65.6433 330.605L66.4433 334.205C71.8433 336.605 77.7433 338.805 84.0433 340.705L83.2433 337.105Z" fill="#482CFF"/>
<path d="M96.2432 354.705C96.2432 354.805 96.2432 354.805 96.2432 354.705V354.705ZM93.0432 340.005C91.9432 339.705 90.8432 339.405 89.7432 339.105L92.9432 353.805C94.0432 354.105 95.1432 354.405 96.2432 354.705L93.0432 340.005ZM114.343 344.705C113.143 344.505 111.943 344.205 110.643 344.005L113.843 358.805C107.743 357.605 101.843 356.305 96.2432 354.805L97.0432 358.405C102.643 359.905 108.543 361.205 114.643 362.405L116.243 369.805C117.443 370.005 118.643 370.305 119.943 370.505L114.343 344.705Z" fill="#482CFF"/>
<path d="M56.4433 256.005C51.7433 254.205 47.3433 252.305 43.2433 250.305C43.6433 256.305 43.9433 261.405 44.4433 269.205C49.1433 282.405 51.5433 289.205 56.7433 303.405C55.7433 302.905 54.8433 302.505 53.9433 302.005C46.4433 280.505 41.8433 266.805 34.8433 245.705C31.2433 243.505 27.8433 241.205 24.8433 238.805C32.8433 264.805 38.8433 283.905 47.1433 309.505C50.7433 311.805 54.6433 313.905 58.9433 315.905C57.9433 296.905 57.2433 281.005 56.4433 256.005Z" fill="#482CFF"/>
<path d="M77.4434 262.605C72.2434 261.205 67.1434 259.705 62.4434 258.105L76.3434 322.905C81.0434 324.505 86.1434 326.005 91.3434 327.405L77.4434 262.605ZM64.8434 237.805C58.4434 236.005 57.1434 242.705 60.8434 249.105C65.6434 257.505 73.6434 258.605 75.0434 253.005C76.4434 247.705 71.0434 239.605 64.8434 237.805Z" fill="#482CFF"/>
<path d="M102.643 266.505C89.3433 264.405 83.4433 265.405 85.6433 276.605L87.0433 283.305C89.3433 293.705 89.8433 296.205 106.743 307.005C115.443 312.405 115.443 312.405 116.043 314.305L116.343 315.805C117.343 321.005 111.643 317.705 111.543 317.705C110.543 316.905 110.143 315.505 109.843 314.505L109.043 311.005C103.143 310.005 97.5433 308.805 92.1433 307.505L93.9433 315.705C99.0433 337.605 131.043 338.105 135.343 331.105C137.043 328.305 136.343 324.605 136.043 323.005L134.243 314.805C132.243 305.805 132.243 305.805 111.943 293.305C104.343 288.805 104.343 288.805 103.743 286.705L103.343 284.905C102.443 280.005 107.743 282.905 107.743 282.905C109.243 283.805 109.643 285.505 109.743 286.205L110.543 290.105C116.543 291.005 122.843 291.805 129.343 292.505L127.543 284.105C125.343 273.805 118.743 269.205 102.643 266.505Z" fill="#482CFF"/>
<path d="M151.943 272.905C144.943 272.605 138.143 272.105 131.543 271.605L145.443 336.405C152.043 337.005 158.843 337.405 165.843 337.705L151.943 272.905ZM136.643 249.705C127.343 249.305 125.243 257.305 130.843 263.305C138.143 271.205 149.743 268.705 149.943 261.305C150.043 255.105 143.043 250.105 136.643 249.705Z" fill="#482CFF"/>
<path d="M195.743 323.905C193.243 323.905 191.643 323.305 191.043 320.305L184.743 291.005C183.643 285.605 190.543 287.705 191.243 288.205C192.343 289.005 192.643 290.405 192.843 290.905L199.143 320.205C199.543 322.405 199.143 323.905 195.743 323.905ZM184.543 271.905C167.343 272.305 159.543 274.505 161.843 286.305L170.143 324.905C175.543 347.405 218.043 340.105 222.543 332.205C224.343 329.105 223.643 325.705 223.343 324.005L215.043 285.405C212.543 275.105 204.543 271.505 184.543 271.905Z" fill="#482CFF"/>
<path d="M259.943 266.305C256.143 266.805 247.343 268.005 245.543 277.305L243.943 269.705C235.643 270.605 227.543 271.305 219.543 271.805L233.443 336.605C241.443 336.005 249.543 335.305 257.843 334.505L246.743 282.805C247.043 279.505 253.743 279.405 255.143 281.305C255.543 281.905 255.743 282.705 255.843 283.005L266.643 333.505C274.143 332.605 281.743 331.605 289.443 330.505C290.343 330.405 291.243 330.205 292.143 330.105L281.043 278.305C277.943 265.505 265.243 265.705 259.943 266.305Z" fill="#482CFF"/>
<path d="M327.343 312.705C324.143 313.305 322.743 312.605 322.143 310.205L318.643 293.705C317.643 288.405 324.943 288.705 326.243 289.605C327.243 290.305 327.443 291.405 327.643 291.905L331.143 308.405C331.643 310.505 331.143 312.005 327.343 312.705ZM315.643 257.305C294.743 261.505 289.343 265.805 291.443 276.405L292.443 280.905C300.143 279.605 307.843 278.305 315.343 276.805L314.643 273.605C313.843 269.105 320.643 269.105 321.943 270.005C323.043 270.705 323.343 272.105 323.543 272.705L326.343 285.705C318.343 273.105 295.243 280.505 292.943 290.405C292.343 293.105 292.743 295.605 293.043 297.005L297.143 316.105C301.243 333.305 325.143 329.305 330.743 320.105C332.143 317.805 332.443 315.805 332.543 314.905L334.243 322.805C342.543 321.105 350.843 319.305 358.943 317.405L347.943 265.605C345.343 255.105 337.243 253.005 315.643 257.305Z" fill="#482CFF"/>
<path d="M391.943 238.205C389.143 239.105 380.443 241.805 379.143 251.605L377.543 244.005C369.743 246.205 361.743 248.305 353.643 250.305L367.543 315.105C375.643 313.105 383.543 311.005 391.443 308.805L380.343 257.105C380.743 253.405 385.943 253.105 386.943 254.305C387.343 254.805 387.543 255.605 387.643 256.005L390.743 270.505C398.543 268.205 406.143 265.805 413.643 263.405L410.243 247.505C407.443 235.005 396.543 236.805 391.943 238.205Z" fill="#482CFF"/>
<path d="M463.443 213.705C456.843 216.605 449.943 219.405 442.943 222.105L453.743 272.605C454.643 277.905 447.943 278.205 447.243 277.605C446.643 277.105 446.343 276.305 446.143 275.505L435.343 225.005C428.243 227.705 420.943 230.305 413.543 232.805L424.643 284.605C428.743 301.805 448.343 293.505 452.643 286.505C454.743 283.205 454.943 280.205 455.043 278.905L457.643 291.105C458.543 296.505 452.043 296.705 451.343 296.405C450.443 295.905 450.143 294.805 450.043 294.305L449.943 293.905C442.843 296.605 435.543 299.205 428.143 301.705L428.543 303.405C433.543 324.005 471.643 304.105 476.843 295.205C479.643 290.505 478.743 285.905 478.343 283.905L463.443 213.705Z" fill="#482CFF"/>
<path d="M542.943 233.505C526.943 244.005 508.443 254.205 487.943 263.705L489.943 272.805C510.443 263.305 528.943 253.105 544.943 242.605L542.943 233.505ZM543.243 233.205C543.143 233.305 543.043 233.305 542.943 233.405V233.605C543.043 233.505 543.143 233.505 543.243 233.405V233.205ZM546.943 209.605C544.443 211.305 541.943 213.105 539.343 214.805L543.243 233.105C545.843 231.405 548.443 229.605 550.843 227.905L546.943 209.605ZM539.243 214.605C539.143 214.705 539.043 214.705 538.943 214.805L539.043 215.105C539.143 215.005 539.243 215.005 539.343 214.905L539.243 214.605ZM537.043 205.605C523.743 214.405 508.743 222.905 492.243 231.005L494.243 240.105C510.743 232.005 525.843 223.505 539.043 214.705L537.043 205.605ZM537.243 205.305C537.143 205.405 537.043 205.405 536.943 205.505V205.705C537.043 205.605 537.143 205.605 537.243 205.505V205.305ZM540.943 181.705C538.443 183.405 535.943 185.205 533.343 186.905L537.243 205.205C539.843 203.505 542.443 201.705 544.843 200.005L540.943 181.705ZM533.243 186.705C533.143 186.705 533.143 186.805 533.043 186.805L533.143 187.105C533.243 187.105 533.243 187.005 533.343 187.005L533.243 186.705ZM531.143 177.805C515.143 188.405 496.643 198.505 476.043 208.105L477.943 217.105C498.543 207.605 517.043 197.405 533.043 186.805L531.143 177.805Z" fill="#482CFF"/>
<path d="M565.243 217.005L555.343 170.805C566.343 161.805 575.443 152.505 582.243 143.305L592.143 189.505C585.343 198.705 576.243 208.005 565.243 217.005ZM580.243 134.005C572.043 145.105 560.543 156.205 546.343 167.005L560.243 231.805C574.443 221.005 585.843 210.005 594.043 198.905L592.043 189.605C593.443 187.705 594.743 185.805 595.943 184.005L586.043 137.805C584.843 139.705 583.543 141.505 582.243 143.405L580.243 134.005Z" fill="#482CFF"/>
<path d="M530.343 293.805C524.743 296.605 523.243 289.605 524.343 285.905C525.643 281.705 530.943 278.505 533.143 282.905C534.743 285.905 534.843 291.305 530.343 293.805ZM521.443 277.405C520.843 277.705 520.343 278.005 519.743 278.305L524.043 298.505C524.643 298.205 525.143 297.905 525.743 297.605L525.243 295.105C525.243 295.105 525.243 295.105 525.343 295.105C528.643 298.005 536.143 294.005 535.943 286.505C535.743 278.205 529.743 277.105 525.343 282.005C523.943 283.605 523.443 285.005 523.243 285.605L521.443 277.405Z" fill="#482CFF"/>
<path d="M546.043 285.605C545.643 289.405 545.343 292.405 543.743 293.605C543.243 293.905 542.743 294.205 542.143 294.505C541.943 294.605 541.743 294.605 541.543 294.705C541.443 294.205 541.343 293.605 541.243 293.105C545.243 291.605 544.343 286.905 544.343 286.905C544.343 286.905 541.043 282.305 535.943 275.405C536.543 275.105 537.143 274.705 537.743 274.405C539.843 277.405 542.643 281.305 544.643 284.305C545.143 279.805 545.743 273.705 546.143 269.205C546.643 268.905 547.243 268.505 547.743 268.205C547.043 276.005 546.543 281.205 546.043 285.605Z" fill="#482CFF"/>
<path d="M565.743 255.605C565.243 256.005 564.843 256.305 564.343 256.705C564.043 261.305 563.643 267.305 563.343 271.905C561.443 269.005 558.843 265.105 556.843 262.205C556.343 262.505 555.843 262.905 555.343 263.205C558.643 268.005 560.143 270.205 563.043 274.505C563.543 274.105 564.043 273.805 564.543 273.405C565.143 263.605 565.243 262.305 565.743 255.605Z" fill="#482CFF"/>
<path d="M569.043 253.005C568.643 253.305 568.243 253.705 567.843 254.005L570.943 268.505C571.343 268.205 571.743 267.805 572.143 267.505L569.043 253.005ZM567.843 247.305C567.343 247.705 566.943 248.005 566.443 248.405L566.943 250.905C567.443 250.505 567.843 250.205 568.343 249.805L567.843 247.305Z" fill="#482CFF"/>
<path d="M575.443 247.405C571.243 251.305 572.443 256.405 574.443 256.605C575.243 256.705 576.343 256.205 577.543 255.505C578.243 255.105 579.643 254.405 580.143 255.005C581.143 256.105 581.043 259.105 578.543 261.105C576.543 262.605 575.743 261.305 575.043 260.005C574.643 260.305 574.243 260.705 573.843 261.005C575.443 266.405 579.543 262.605 580.943 260.105C582.543 257.305 582.543 252.105 579.143 253.105C578.043 253.405 577.143 254.105 576.043 254.405C575.243 254.605 574.943 254.605 574.543 254.405C574.143 254.205 573.443 252.505 574.443 250.605C574.443 250.505 577.543 245.705 579.043 249.805C579.443 249.505 579.843 249.105 580.143 248.805C579.743 247.305 578.743 244.505 575.443 247.405Z" fill="#482CFF"/>
<path d="M585.343 238.305C580.443 243.605 582.543 254.805 586.243 254.805C587.143 254.805 591.843 252.905 591.143 244.405C590.843 244.805 590.443 245.105 590.143 245.505C590.643 251.305 587.343 253.905 585.643 252.405C582.343 249.405 583.443 239.305 587.143 239.005C588.143 238.905 588.743 240.105 589.043 240.705C589.343 240.405 589.743 240.005 590.043 239.705C589.443 238.505 588.343 235.305 585.343 238.305Z" fill="#482CFF"/>
<path d="M596.843 242.905C593.743 246.105 592.643 239.005 592.543 236.605C592.443 231.505 595.043 228.605 596.443 230.105C598.043 231.705 599.643 239.605 596.843 242.905ZM593.943 229.105C589.543 234.705 592.143 245.905 595.343 245.505C600.143 245.005 600.343 231.205 596.843 228.305C596.043 227.505 595.043 227.805 593.943 229.105Z" fill="#482CFF"/>
<path d="M601.443 216.705L601.143 215.105C601.243 214.905 601.443 214.705 601.543 214.505C601.743 214.205 602.043 213.905 602.143 214.605C602.343 215.405 602.043 215.805 601.843 216.205C601.743 216.305 601.643 216.505 601.443 216.705ZM601.443 213.705C601.143 214.105 600.943 214.505 600.643 214.905L601.743 220.005C601.843 219.805 601.943 219.705 602.043 219.505L601.543 217.305C601.643 217.105 601.743 216.905 601.943 216.805L602.943 218.205C603.043 218.005 603.143 217.905 603.243 217.705C602.943 217.305 602.543 216.705 602.143 216.305C602.743 215.005 602.343 213.105 601.843 213.205C601.743 213.305 601.543 213.605 601.443 213.705ZM602.743 220.105C601.643 221.605 600.743 220.205 600.343 218.205C599.843 215.005 601.043 211.405 602.343 212.305C603.643 213.105 604.043 218.105 602.743 220.105ZM600.943 212.005C598.943 215.405 599.943 222.005 601.843 221.705C604.143 221.305 604.643 212.805 602.443 211.405C601.943 211.005 601.443 211.305 600.943 212.005Z" fill="#482CFF"/>
</g>
</svg>
