<svg width="293" height="81" viewBox="0 0 293 81" fill="none" xmlns="http://www.w3.org/2000/svg">
<path d="M120.571 66.502H119.853V64.0789L117.879 60.3959H118.776L120.212 63.3036L121.649 60.3959H122.456L120.571 64.0789V66.502Z" fill="#FAFAFF"/>
<path d="M123.175 64.1759C123.175 63.4005 123.354 62.722 123.713 62.3343C124.072 61.8497 124.521 61.6559 125.149 61.6559C125.778 61.6559 126.227 61.8497 126.586 62.3343C126.945 62.819 127.124 63.4005 127.124 64.1759C127.124 64.9512 126.945 65.6297 126.586 66.0174C126.227 66.405 125.778 66.6958 125.149 66.6958C124.521 66.6958 124.072 66.502 123.713 66.0174C123.354 65.5327 123.175 64.9512 123.175 64.1759ZM123.893 64.1759C123.893 64.7574 123.982 65.242 124.162 65.5327C124.341 65.8235 124.611 66.0174 125.06 66.0174C125.419 66.0174 125.688 65.8235 125.957 65.5327C126.137 65.242 126.227 64.7574 126.227 64.1759C126.227 63.5943 126.137 63.1097 125.957 62.819C125.778 62.5282 125.508 62.3343 125.06 62.3343C124.701 62.3343 124.431 62.5282 124.162 62.819C123.893 63.1097 123.893 63.5943 123.893 64.1759Z" fill="#FAFAFF"/>
<path d="M131.612 61.7528V66.502H130.894V65.8235C130.715 66.1143 130.535 66.3081 130.356 66.502C130.176 66.6958 129.907 66.6958 129.548 66.6958C129.189 66.6958 129.009 66.5989 128.83 66.502C128.65 66.405 128.471 66.2112 128.381 66.0174C128.291 65.9204 128.291 65.7266 128.201 65.6297C128.201 65.4358 128.201 65.242 128.201 64.8543V64.6605V61.7528H128.919V64.7574C128.919 65.1451 129.009 65.4358 129.099 65.6297C129.189 65.8235 129.458 65.9204 129.727 65.9204C130.086 65.9204 130.356 65.8235 130.625 65.5327C130.804 65.242 130.894 64.9512 130.894 64.4666V61.7528H131.612Z" fill="#FAFAFF"/>
<path d="M133.497 66.502V61.7528H134.126V62.5282C134.305 62.2374 134.485 61.9467 134.664 61.8497C134.934 61.6559 135.113 61.559 135.472 61.559C135.921 61.559 136.28 61.6559 136.549 61.9467C136.819 62.2374 136.908 62.6251 136.908 63.2066H136.19C136.19 62.9159 136.1 62.6251 136.011 62.5282C135.831 62.3343 135.652 62.3343 135.382 62.3343C135.023 62.3343 134.754 62.4313 134.574 62.722C134.395 63.0128 134.305 63.3036 134.305 63.7882V66.502H133.497Z" fill="#FAFAFF"/>
<path d="M145.256 65.8235H146.782V66.502H143.102V65.8235H144.538V62.5282H143.371V61.8497H145.256V65.8235ZM145.256 60.2021V61.0744H144.538V60.2021H145.256Z" fill="#FAFAFF"/>
<path d="M150.642 65.8235C150.463 66.1143 150.283 66.3081 150.104 66.502C149.924 66.6958 149.655 66.6958 149.386 66.6958C148.847 66.6958 148.488 66.502 148.129 66.0174C147.86 65.5327 147.68 64.9512 147.68 64.1759C147.68 63.4005 147.86 62.819 148.129 62.3343C148.398 61.8497 148.847 61.6559 149.386 61.6559C149.655 61.6559 149.924 61.7528 150.104 61.8497C150.283 62.0436 150.463 62.2374 150.642 62.5282V60.2021H151.36V66.502H150.642V65.8235ZM149.475 62.3343C149.116 62.3343 148.847 62.5282 148.667 62.819C148.488 63.1097 148.398 63.5943 148.398 64.1759C148.398 64.7574 148.488 65.242 148.667 65.5327C148.847 65.8235 149.116 66.0174 149.475 66.0174C149.834 66.0174 150.104 65.8235 150.283 65.5327C150.463 65.242 150.552 64.7574 150.552 64.1759C150.552 63.5943 150.463 63.1097 150.283 62.819C150.104 62.4313 149.834 62.3343 149.475 62.3343Z" fill="#FAFAFF"/>
<path d="M153.515 64.3698C153.515 64.8544 153.604 65.2421 153.784 65.5329C153.963 65.8236 154.233 65.9206 154.592 65.9206C154.861 65.9206 155.041 65.8236 155.22 65.7267C155.4 65.6298 155.489 65.339 155.579 65.1452H156.297C156.208 65.6298 156.028 66.0175 155.669 66.2113C155.31 66.4052 154.951 66.599 154.502 66.599C153.963 66.599 153.515 66.4052 153.156 65.9206C152.797 65.4359 152.707 64.8544 152.707 64.079C152.707 63.3037 152.886 62.7222 153.156 62.2375C153.515 61.7529 153.963 61.5591 154.502 61.5591C155.041 61.5591 155.489 61.7529 155.849 62.2375C156.208 62.6252 156.297 63.2068 156.297 63.9821C156.297 64.079 156.297 64.176 156.297 64.176C156.297 64.2729 156.297 64.2729 156.297 64.2729H153.515V64.3698ZM153.515 63.6914H155.669C155.669 63.2068 155.579 62.916 155.4 62.6252C155.22 62.3345 154.951 62.2375 154.592 62.2375C154.233 62.2375 153.963 62.3345 153.784 62.6252C153.604 62.916 153.515 63.3037 153.515 63.6914Z" fill="#FAFAFF"/>
<path d="M160.337 65.9204C160.157 66.2112 159.888 66.405 159.708 66.502C159.529 66.5989 159.17 66.6958 158.9 66.6958C158.452 66.6958 158.182 66.5989 157.913 66.3081C157.644 66.0174 157.554 65.7266 157.554 65.242C157.554 64.7574 157.644 64.3697 157.913 64.1759C158.182 63.982 158.541 63.7882 159.17 63.6912C159.259 63.6912 159.349 63.6912 159.439 63.6912C159.978 63.5943 160.247 63.4005 160.247 63.0128C160.247 62.722 160.157 62.6251 160.067 62.4313C159.888 62.3344 159.708 62.2374 159.349 62.2374C159.08 62.2374 158.811 62.3344 158.631 62.4313C158.452 62.5282 158.362 62.819 158.362 63.1097H157.733V63.0128C157.733 62.5282 157.913 62.1405 158.182 61.9467C158.452 61.6559 158.9 61.559 159.349 61.559C159.888 61.559 160.247 61.6559 160.516 61.9467C160.785 62.2374 160.875 62.5282 160.875 63.0128V65.4358C160.875 65.6297 160.875 65.7266 160.965 65.8235C160.965 65.9204 161.055 65.9204 161.144 65.9204C161.144 65.9204 161.144 65.9204 161.234 65.9204H161.324V66.502C161.234 66.502 161.144 66.502 161.144 66.5989C161.055 66.5989 161.055 66.5989 160.965 66.5989C160.696 66.5989 160.606 66.502 160.426 66.405C160.426 66.3081 160.337 66.1143 160.337 65.9204ZM160.337 64.8543V64.0789C160.157 64.1759 159.888 64.2728 159.439 64.3697C159.259 64.3697 159.17 64.3697 159.08 64.4666C158.811 64.5635 158.631 64.5635 158.541 64.7574C158.452 64.9512 158.362 65.0481 158.362 65.242C158.362 65.5327 158.452 65.7266 158.541 65.8235C158.631 65.9204 158.811 66.0174 159.08 66.0174C159.439 66.0174 159.708 65.9204 159.978 65.7266C160.157 65.4358 160.337 65.1451 160.337 64.8543Z" fill="#FAFAFF"/>
<path d="M164.825 63.7882C165.363 63.8851 165.722 64.0789 165.902 64.2728C166.081 64.4666 166.171 64.7574 166.171 65.1451C166.171 65.6297 165.992 66.0174 165.722 66.3081C165.363 66.5989 165.004 66.6958 164.376 66.6958C163.837 66.6958 163.389 66.5989 163.119 66.3081C162.85 66.0174 162.67 65.6297 162.67 65.0481H163.389C163.389 65.3389 163.478 65.6297 163.658 65.7266C163.837 65.9204 164.107 65.9204 164.466 65.9204C164.735 65.9204 165.004 65.8235 165.184 65.7266C165.363 65.6297 165.453 65.4358 165.453 65.1451C165.453 64.9512 165.363 64.8543 165.274 64.7574C165.184 64.6605 165.004 64.5635 164.735 64.4666L163.927 64.2728C163.478 64.1759 163.119 63.982 162.94 63.7882C162.76 63.5943 162.67 63.3036 162.67 62.9159C162.67 62.5282 162.85 62.1405 163.119 61.9467C163.389 61.6559 163.837 61.559 164.286 61.559C164.825 61.559 165.184 61.6559 165.543 61.9467C165.812 62.2374 165.992 62.5282 165.992 63.0128H165.274C165.274 62.819 165.184 62.6251 165.004 62.4313C164.825 62.2374 164.645 62.2374 164.286 62.2374C164.017 62.2374 163.748 62.3344 163.658 62.4313C163.478 62.5282 163.389 62.722 163.389 62.9159C163.389 63.1097 163.478 63.2066 163.568 63.3036C163.658 63.4005 163.837 63.4974 164.107 63.4974L164.825 63.7882Z" fill="#FAFAFF"/>
<path d="M168.774 66.502V65.1451H169.941V66.5989C169.941 67.0835 169.851 67.5681 169.582 67.8589C169.313 68.1497 169.044 68.3435 168.595 68.3435V67.762C168.864 67.762 169.044 67.6651 169.133 67.4712C169.223 67.2774 169.313 67.0835 169.313 66.6958V66.502H168.774Z" fill="#FAFAFF"/>
<path d="M69.9449 73.0927C70.1244 72.8019 70.304 72.5112 70.4835 72.4142C70.663 72.3173 70.9323 72.2204 71.2016 72.2204C71.7402 72.2204 72.0992 72.4142 72.4583 72.8988C72.7276 73.3835 72.9071 73.965 72.9071 74.7403C72.9071 75.5157 72.7276 76.0972 72.4583 76.5818C72.189 77.0665 71.7402 77.2603 71.2016 77.2603C70.9323 77.2603 70.663 77.1634 70.4835 77.0665C70.304 76.9695 70.1244 76.6788 69.9449 76.388V78.908H69.2268V72.3173H69.9449V73.0927ZM71.1118 76.5818C71.4709 76.5818 71.7402 76.388 71.9197 76.0972C72.0992 75.8065 72.189 75.3219 72.189 74.7403C72.189 74.1588 72.0992 73.6742 71.9197 73.3835C71.7402 73.0927 71.4709 72.8988 71.1118 72.8988C70.7528 72.8988 70.4835 73.0927 70.304 73.3835C70.1244 73.6742 70.0347 74.1588 70.0347 74.7403C70.0347 75.3219 70.1244 75.8065 70.304 76.0972C70.4835 76.388 70.7528 76.5818 71.1118 76.5818Z" fill="#FAFAFF"/>
<path d="M74.4331 77.0664V72.3173H75.0614V73.1896C75.241 72.8988 75.4205 72.608 75.6 72.5111C75.8693 72.3173 76.0488 72.2203 76.4079 72.2203C76.8567 72.2203 77.2158 72.3173 77.4851 72.608C77.7543 72.8988 77.8441 73.2865 77.8441 73.868H77.126C77.126 73.5772 77.0362 73.2865 76.9465 73.1896C76.767 72.9957 76.5874 72.9957 76.3181 72.9957C75.9591 72.9957 75.6898 73.0926 75.5103 73.3834C75.3307 73.6742 75.241 73.9649 75.241 74.4495V77.0664H74.4331Z" fill="#FAFAFF"/>
<path d="M81.2552 76.4849H82.7811V77.0664H79.1008V76.388H80.537V73.0926H79.3701V72.4142H81.2552V76.4849ZM81.3449 70.7665V71.6388H80.6268V70.7665H81.3449Z" fill="#FAFAFF"/>
<path d="M84.0378 77.0664V72.3173H84.756V72.9957C84.9355 72.705 85.115 72.5111 85.2945 72.3173C85.4741 72.1234 85.7433 72.1234 86.1024 72.1234C86.4615 72.1234 86.641 72.2203 86.8205 72.3173C87 72.4142 87.1796 72.608 87.2693 72.8019C87.3591 72.8988 87.3591 73.0926 87.4489 73.1896C87.4489 73.3834 87.4489 73.5772 87.4489 73.9649V74.1588V77.0664H86.7307V74.1588C86.7307 73.6742 86.641 73.3834 86.5512 73.1896C86.4615 72.9957 86.1922 72.8988 85.9229 72.8988C85.5638 72.8988 85.2945 72.9957 85.0252 73.2865C84.8457 73.5772 84.756 73.868 84.756 74.3526V77.0664H84.0378Z" fill="#FAFAFF"/>
<path d="M89.8724 73.1897H88.6157V72.5112H89.8724V71.1543H90.5905V72.5112H92.2063V73.1897H90.5905V75.4189C90.5905 75.9035 90.6803 76.1942 90.77 76.3881C90.9496 76.485 91.2189 76.5819 91.5779 76.5819C91.6677 76.5819 91.7574 76.5819 91.8472 76.5819C91.937 76.5819 92.0267 76.5819 92.2063 76.5819V77.2604C92.0267 77.2604 91.8472 77.2604 91.6677 77.2604C91.4881 77.2604 91.3984 77.2604 91.3086 77.2604C90.77 77.2604 90.3212 77.1635 90.1417 76.8727C89.9622 76.5819 89.7826 76.1942 89.7826 75.5158V73.1897H89.8724Z" fill="#FAFAFF"/>
<path d="M94.4503 74.9341C94.4503 75.4188 94.5401 75.8064 94.7196 76.0972C94.8992 76.388 95.1684 76.4849 95.5275 76.4849C95.7968 76.4849 95.9763 76.388 96.1558 76.291C96.3354 76.1941 96.4251 75.9034 96.5149 75.7095H97.233C97.1432 76.1941 96.9637 76.5818 96.6046 76.7756C96.2456 76.9695 95.8865 77.1633 95.4377 77.1633C94.8991 77.1633 94.4503 76.9695 94.0913 76.4849C93.7322 76.0003 93.6425 75.4188 93.6425 74.6434C93.6425 73.868 93.822 73.2865 94.0913 72.8019C94.4503 72.3173 94.8991 72.1234 95.4377 72.1234C95.9763 72.1234 96.4251 72.3173 96.7842 72.8019C97.1432 73.1896 97.233 73.7711 97.233 74.5465C97.233 74.6434 97.233 74.7403 97.233 74.7403C97.233 74.8372 97.233 74.8372 97.233 74.8372H94.4503V74.9341ZM94.4503 74.2557H96.6046C96.6046 73.7711 96.5149 73.4803 96.3354 73.1896C96.1558 72.8988 95.8865 72.8019 95.5275 72.8019C95.1684 72.8019 94.8992 72.8988 94.7196 73.1896C94.6299 73.4803 94.5401 73.868 94.4503 74.2557Z" fill="#FAFAFF"/>
<path d="M101.452 76.3881C101.272 76.6788 101.093 76.8727 100.913 77.0665C100.734 77.2604 100.464 77.2604 100.195 77.2604C99.6565 77.2604 99.2975 77.0665 98.9384 76.5819C98.6692 76.0973 98.4896 75.5158 98.4896 74.7404C98.4896 73.9651 98.6692 73.3835 98.9384 72.8989C99.2077 72.4143 99.6565 72.2205 100.195 72.2205C100.464 72.2205 100.734 72.3174 100.913 72.4143C101.093 72.6082 101.272 72.802 101.452 73.0928V70.7667H102.17V77.0665H101.452V76.3881ZM100.375 72.8989C100.016 72.8989 99.7463 73.0928 99.5668 73.3835C99.3873 73.6743 99.2975 74.1589 99.2975 74.7404C99.2975 75.322 99.3873 75.8066 99.5668 76.0973C99.7463 76.3881 100.016 76.5819 100.375 76.5819C100.734 76.5819 101.003 76.3881 101.183 76.0973C101.362 75.8066 101.452 75.322 101.452 74.7404C101.452 74.1589 101.362 73.6743 101.183 73.3835C101.003 73.0928 100.734 72.8989 100.375 72.8989Z" fill="#FAFAFF"/>
<path d="M109.531 73.1897H108.274V72.5112H109.531V71.1543H110.249V72.5112H111.864V73.1897H110.249V75.4189C110.249 75.9035 110.338 76.1942 110.428 76.3881C110.608 76.485 110.877 76.5819 111.236 76.5819C111.326 76.5819 111.416 76.5819 111.505 76.5819C111.595 76.5819 111.685 76.5819 111.864 76.5819V77.2604C111.685 77.2604 111.505 77.2604 111.326 77.2604C111.146 77.2604 111.057 77.2604 110.967 77.2604C110.428 77.2604 109.979 77.1635 109.8 76.8727C109.62 76.5819 109.441 76.1942 109.441 75.5158V73.1897H109.531Z" fill="#FAFAFF"/>
<path d="M113.301 74.7404C113.301 73.9651 113.48 73.2866 113.839 72.8989C114.198 72.4143 114.647 72.2205 115.275 72.2205C115.904 72.2205 116.353 72.4143 116.712 72.8989C117.071 73.3835 117.25 73.9651 117.25 74.7404C117.25 75.5158 117.071 76.1942 116.712 76.5819C116.353 76.9696 115.904 77.2604 115.275 77.2604C114.647 77.2604 114.198 77.0665 113.839 76.5819C113.48 76.1942 113.301 75.5158 113.301 74.7404ZM114.019 74.7404C114.019 75.322 114.109 75.8066 114.288 76.0973C114.468 76.3881 114.737 76.5819 115.186 76.5819C115.545 76.5819 115.814 76.3881 116.083 76.0973C116.263 75.8066 116.353 75.322 116.353 74.7404C116.353 74.1589 116.263 73.6743 116.083 73.3835C115.904 73.0928 115.634 72.8989 115.186 72.8989C114.827 72.8989 114.557 73.0928 114.288 73.3835C114.019 73.6743 114.019 74.1589 114.019 74.7404Z" fill="#FAFAFF"/>
<path d="M124.072 73.0927C124.252 72.8019 124.431 72.5112 124.611 72.4142C124.79 72.3173 125.06 72.2204 125.329 72.2204C125.868 72.2204 126.227 72.4142 126.586 72.8988C126.855 73.3835 127.035 73.965 127.035 74.7403C127.035 75.5157 126.855 76.0972 126.586 76.5818C126.316 77.0665 125.868 77.2603 125.329 77.2603C125.06 77.2603 124.79 77.1634 124.611 77.0665C124.431 76.9695 124.252 76.6788 124.072 76.388V78.908H123.354V72.3173H124.072V73.0927ZM125.15 76.5818C125.509 76.5818 125.778 76.388 125.957 76.0972C126.137 75.8065 126.227 75.3219 126.227 74.7403C126.227 74.1588 126.137 73.6742 125.957 73.3835C125.778 73.0927 125.509 72.8988 125.15 72.8988C124.79 72.8988 124.521 73.0927 124.342 73.3835C124.162 73.6742 124.072 74.1588 124.072 74.7403C124.072 75.3219 124.162 75.8065 124.342 76.0972C124.521 76.388 124.79 76.5818 125.15 76.5818Z" fill="#FAFAFF"/>
<path d="M128.919 74.9341C128.919 75.4188 129.009 75.8064 129.189 76.0972C129.368 76.388 129.638 76.4849 129.997 76.4849C130.266 76.4849 130.445 76.388 130.625 76.291C130.804 76.1941 130.894 75.9034 130.984 75.7095H131.702C131.612 76.1941 131.433 76.5818 131.074 76.7756C130.715 76.9695 130.356 77.1633 129.907 77.1633C129.368 77.1633 128.919 76.9695 128.56 76.4849C128.201 76.0003 128.112 75.4188 128.112 74.6434C128.112 73.868 128.291 73.2865 128.56 72.8019C128.919 72.3173 129.368 72.1234 129.907 72.1234C130.445 72.1234 130.894 72.3173 131.253 72.8019C131.612 73.1896 131.702 73.7711 131.702 74.5465C131.702 74.6434 131.702 74.7403 131.702 74.7403C131.702 74.8372 131.702 74.8372 131.702 74.8372H128.919V74.9341ZM128.919 74.2557H131.074C131.074 73.7711 130.984 73.4803 130.804 73.1896C130.625 72.8988 130.356 72.8019 129.997 72.8019C129.638 72.8019 129.368 72.8988 129.189 73.1896C129.009 73.4803 128.919 73.868 128.919 74.2557Z" fill="#FAFAFF"/>
<path d="M133.497 77.0664V72.3173H134.126V73.1896C134.305 72.8988 134.485 72.608 134.664 72.5111C134.934 72.3173 135.113 72.2203 135.472 72.2203C135.921 72.2203 136.28 72.3173 136.549 72.608C136.819 72.8988 136.908 73.2865 136.908 73.868H136.19C136.19 73.5772 136.1 73.2865 136.011 73.1896C135.831 72.9957 135.652 72.9957 135.382 72.9957C135.023 72.9957 134.754 73.0926 134.574 73.3834C134.395 73.6742 134.305 73.9649 134.305 74.4495V77.0664H133.497Z" fill="#FAFAFF"/>
<path d="M139.063 73.1896H137.716V72.5111H139.063V72.1234C139.063 71.6388 139.153 71.3481 139.422 71.1542C139.691 70.9604 140.05 70.8635 140.589 70.8635C140.678 70.8635 140.768 70.8635 140.948 70.8635C141.127 70.8635 141.217 70.8635 141.397 70.8635V71.5419C141.397 71.5419 141.397 71.5419 141.307 71.5419C141.038 71.5419 140.858 71.5419 140.768 71.5419C140.409 71.5419 140.14 71.6388 139.96 71.7357C139.781 71.8327 139.691 72.0265 139.691 72.3173V72.608H141.307V73.1896H139.691V77.0664H138.973V73.1896H139.063Z" fill="#FAFAFF"/>
<path d="M143.641 74.9341C143.641 75.4188 143.73 75.8064 143.91 76.0972C144.089 76.388 144.359 76.4849 144.718 76.4849C144.987 76.4849 145.167 76.388 145.346 76.291C145.526 76.1941 145.615 75.9034 145.705 75.7095H146.423C146.334 76.1941 146.154 76.5818 145.795 76.7756C145.436 76.9695 145.077 77.1633 144.628 77.1633C144.089 77.1633 143.641 76.9695 143.282 76.4849C142.923 76.0003 142.833 75.4188 142.833 74.6434C142.833 73.868 143.012 73.2865 143.282 72.8019C143.641 72.3173 144.089 72.1234 144.628 72.1234C145.167 72.1234 145.615 72.3173 145.974 72.8019C146.334 73.1896 146.423 73.7711 146.423 74.5465C146.423 74.6434 146.423 74.7403 146.423 74.7403C146.423 74.8372 146.423 74.8372 146.423 74.8372H143.641V74.9341ZM143.641 74.2557H145.795C145.795 73.7711 145.705 73.4803 145.526 73.1896C145.346 72.8988 145.077 72.8019 144.718 72.8019C144.359 72.8019 144.089 72.8988 143.91 73.1896C143.82 73.4803 143.641 73.868 143.641 74.2557Z" fill="#FAFAFF"/>
<path d="M150.732 73.9651C150.732 73.6743 150.642 73.3835 150.463 73.1897C150.283 72.9958 150.014 72.8989 149.745 72.8989C149.386 72.8989 149.116 73.0928 148.937 73.3835C148.757 73.6743 148.667 74.1589 148.667 74.7404C148.667 75.322 148.757 75.8066 148.937 76.0973C149.116 76.3881 149.386 76.5819 149.834 76.5819C150.104 76.5819 150.373 76.485 150.552 76.2912C150.732 76.0973 150.822 75.8066 150.911 75.4189H151.63C151.63 76.0004 151.45 76.485 151.091 76.7758C150.732 77.0665 150.373 77.2604 149.834 77.2604C149.206 77.2604 148.757 77.0665 148.488 76.5819C148.219 76.0973 148.039 75.5158 148.039 74.7404C148.039 73.9651 148.219 73.2866 148.578 72.8989C148.937 72.5112 149.386 72.2205 149.924 72.2205C150.463 72.2205 150.822 72.4143 151.181 72.7051C151.54 72.9958 151.63 73.4805 151.719 73.9651H150.732Z" fill="#FAFAFF"/>
<path d="M153.784 73.1897H152.527V72.5112H153.784V71.1543H154.502V72.5112H156.118V73.1897H154.502V75.4189C154.502 75.9035 154.592 76.1942 154.682 76.3881C154.861 76.485 155.13 76.5819 155.49 76.5819C155.579 76.5819 155.669 76.5819 155.759 76.5819C155.849 76.5819 155.938 76.5819 156.118 76.5819V77.2604C155.938 77.2604 155.759 77.2604 155.579 77.2604C155.4 77.2604 155.31 77.2604 155.22 77.2604C154.682 77.2604 154.233 77.1635 154.053 76.8727C153.874 76.5819 153.694 76.1942 153.694 75.5158V73.1897H153.784Z" fill="#FAFAFF"/>
<path d="M159.978 76.4849H161.504V77.0664H157.823V76.388H159.259V73.0926H158.093V72.4142H159.978V76.4849ZM159.978 70.7665V71.6388H159.259V70.7665H159.978Z" fill="#FAFAFF"/>
<path d="M162.491 74.7404C162.491 73.9651 162.67 73.2866 163.03 72.8989C163.389 72.4143 163.837 72.2205 164.466 72.2205C165.094 72.2205 165.543 72.4143 165.902 72.8989C166.261 73.3835 166.441 73.9651 166.441 74.7404C166.441 75.5158 166.261 76.1942 165.902 76.5819C165.543 76.9696 165.094 77.2604 164.466 77.2604C163.837 77.2604 163.389 77.0665 163.03 76.5819C162.67 76.1942 162.491 75.5158 162.491 74.7404ZM163.209 74.7404C163.209 75.322 163.299 75.8066 163.478 76.0973C163.658 76.3881 163.927 76.5819 164.376 76.5819C164.735 76.5819 165.004 76.3881 165.274 76.0973C165.453 75.8066 165.543 75.322 165.543 74.7404C165.543 74.1589 165.453 73.6743 165.274 73.3835C165.094 73.0928 164.825 72.8989 164.376 72.8989C164.017 72.8989 163.748 73.0928 163.478 73.3835C163.209 73.6743 163.209 74.1589 163.209 74.7404Z" fill="#FAFAFF"/>
<path d="M167.607 77.0664V72.3173H168.326V72.9957C168.505 72.705 168.685 72.5111 168.864 72.3173C169.044 72.1234 169.313 72.1234 169.672 72.1234C170.031 72.1234 170.211 72.2203 170.39 72.3173C170.57 72.4142 170.749 72.608 170.839 72.8019C170.929 72.8988 170.929 73.0926 171.018 73.1896C171.018 73.3834 171.018 73.5772 171.018 73.9649V74.1588V77.0664H170.3V74.1588C170.3 73.6742 170.211 73.3834 170.121 73.1896C170.031 72.9957 169.762 72.8988 169.492 72.8988C169.133 72.8988 168.864 72.9957 168.595 73.2865C168.415 73.5772 168.326 73.868 168.326 74.3526V77.0664H167.607Z" fill="#FAFAFF"/>
<path d="M20.0365 74.4495H17.9719V76.6787H7.73889V74.4495H5.67432V63.4005H7.73889V61.1713H17.9719V63.4005H20.0365V74.4495ZM15.9073 65.5328V63.4005H7.73889V72.2203H9.71367V69.9912H11.7782V67.762H13.8428V65.5328H15.9073ZM17.9719 74.4495V65.6297H15.9073V67.8589H13.8428V70.0881H11.7782V72.3173H9.71367V74.5464H17.9719V74.4495Z" fill="#FAFAFF"/>
<path d="M36.5529 67.7618H34.4884V69.991H24.1656V74.4494H36.5529V76.6786H22.1908V70.088H24.2554V67.8588H34.5782V63.4004H22.1908V61.2681H34.4884V63.4973H36.5529V67.7618Z" fill="#FAFAFF"/>
<path d="M53.0694 76.6786H51.0048V72.2202H40.7718V69.991H38.7073V61.1712H40.7718V70.088H51.0946V61.1712H53.1592V76.6786H53.0694Z" fill="#FAFAFF"/>
<path d="M0.557861 14.5523H10.4318L17.2538 45.761H19.4979L15.0097 26.8613L17.6129 14.5523H27.5766L19.0491 53.4177H8.99561L0.557861 14.5523Z" fill="#FAFAFF"/>
<path d="M32.9625 2.53412C33.9499 1.46799 35.2066 0.886467 36.553 0.886467C37.9892 0.886467 39.1562 1.46799 40.1436 2.53412C41.1309 3.60025 41.6695 4.86023 41.6695 6.41097C41.6695 7.96171 41.1309 9.22168 40.1436 10.2878C39.1562 11.3539 37.8995 11.9355 36.553 11.9355C35.1168 11.9355 33.9499 11.3539 32.9625 10.2878C31.9751 9.22168 31.4365 7.86478 31.4365 6.41097C31.4365 4.95715 31.9751 3.60025 32.9625 2.53412ZM31.7058 14.5523H41.3105V53.4177H31.7058V14.5523Z" fill="#FAFAFF"/>
<path d="M47.2348 52.2547C45.5292 50.8978 44.6316 48.6686 44.6316 45.5671V40.6242H54.2363V42.7564C54.2363 43.5318 54.326 44.1133 54.5953 44.4041C54.8646 44.6948 55.3134 44.8887 55.9418 44.8887C56.5701 44.8887 57.0189 44.6948 57.2882 44.4041C57.5575 44.1133 57.737 43.5318 57.737 42.8533V41.9811C57.737 41.0118 57.2882 40.4303 56.4804 40.1396L53.4284 38.395C50.4662 36.6504 48.4017 35.3904 47.3245 34.3243C46.1576 33.3551 45.4395 32.2889 45.1702 31.2228C44.9009 30.1567 44.7214 28.4121 44.7214 25.9891V22.0153C44.7214 19.0107 45.619 16.8785 47.4143 15.5216C49.2095 14.1647 52.082 13.4862 56.1213 13.4862C60.1607 13.4862 63.1228 14.1647 64.8283 15.5216C66.5339 16.8785 67.4315 19.1077 67.4315 22.3061V27.346H57.8268V25.0199C57.8268 24.2445 57.6473 23.7599 57.378 23.3722C57.1087 23.0814 56.6599 22.8876 56.0315 22.8876C55.4032 22.8876 54.9544 23.0814 54.6851 23.3722C54.4158 23.663 54.3261 24.1476 54.3261 24.826V25.8921C54.3261 26.8614 54.6851 27.4429 55.493 27.7336L58.0961 29.1875C61.2378 31.029 63.3921 32.4828 64.5591 33.452C65.8158 34.4212 66.5339 35.3904 66.8929 36.3596C67.252 37.3288 67.3417 38.6857 67.3417 40.7211V45.6641C67.3417 48.6686 66.4441 50.8978 64.6488 52.2547C62.8536 53.6116 59.9811 54.29 55.9418 54.29C51.9024 54.29 48.9403 53.6116 47.2348 52.2547Z" fill="#FAFAFF"/>
<path d="M71.7401 2.53412C72.7275 1.46799 73.9842 0.886467 75.3306 0.886467C76.7668 0.886467 77.9338 1.46799 78.9212 2.53412C79.9086 3.60025 80.4471 4.86023 80.4471 6.41097C80.4471 7.96171 79.9086 9.22168 78.9212 10.2878C77.9338 11.3539 76.6771 11.9355 75.3306 11.9355C73.8944 11.9355 72.7275 11.3539 71.7401 10.2878C70.7527 9.22168 70.2141 7.86478 70.2141 6.41097C70.2141 4.95715 70.7527 3.60025 71.7401 2.53412ZM70.5732 14.5523H80.1778V53.4177H70.5732V14.5523Z" fill="#FAFAFF"/>
<path d="M86.0124 52.2547C84.3069 50.8978 83.4093 48.6686 83.4093 45.5671V22.403C83.4093 19.3015 84.3069 16.9754 86.0124 15.6185C87.7179 14.2616 90.6801 13.5832 94.7195 13.5832C98.7588 13.5832 101.721 14.2616 103.427 15.6185C105.132 16.9754 106.03 19.2046 106.03 22.403V45.5671C106.03 48.6686 105.132 50.8978 103.337 52.2547C101.541 53.6116 98.6691 54.29 94.6297 54.29C90.6801 54.29 87.8077 53.6116 86.0124 52.2547ZM93.373 44.4041C93.6423 44.6948 94.0911 44.8887 94.7195 44.8887C95.3478 44.8887 95.7966 44.6948 96.0659 44.4041C96.3352 44.1133 96.5148 43.5318 96.5148 42.7564V25.1168C96.5148 24.3414 96.3352 23.8568 96.0659 23.4691C95.7966 23.1784 95.3478 22.9845 94.7195 22.9845C94.0911 22.9845 93.6423 23.1784 93.373 23.4691C93.1037 23.7599 93.014 24.3414 93.014 25.1168V42.7564C93.014 43.5318 93.1935 44.1133 93.373 44.4041Z" fill="#FAFAFF"/>
<path d="M121.648 21.5307C121.379 21.2399 120.93 21.0461 120.302 21.0461C119.763 21.0461 119.404 21.143 119.135 21.3368C118.866 21.5307 118.686 21.9184 118.596 22.403V53.4177H108.992V14.5524H118.596V19.1076C119.045 17.46 119.763 16.2 120.751 15.1339C121.738 14.0677 123.174 13.6801 124.88 13.6801C126.765 13.6801 128.381 14.3585 129.727 15.8123C130.984 17.2661 131.612 19.3984 131.612 22.306V53.4177H122.008V23.0814C122.008 22.403 121.918 21.8214 121.648 21.5307Z" fill="#FAFAFF"/>
<path d="M136.549 52.1577C135.293 50.7038 134.664 48.5716 134.664 45.6639V34.2272C134.664 31.3196 135.293 29.0904 136.549 27.7335C137.806 26.2797 139.422 25.6013 141.397 25.6013C143.192 25.6013 144.628 26.0859 145.615 27.152C146.603 28.2181 147.321 29.575 147.68 31.2227V23.3721C147.68 22.5967 147.5 21.9183 147.231 21.6275C146.962 21.2398 146.513 21.046 145.974 21.046C145.346 21.046 144.987 21.2398 144.718 21.5306C144.449 21.8213 144.359 22.3059 144.359 22.9844V24.9228H135.652V22.209C135.652 20.1737 135.921 18.526 136.549 17.266C137.178 16.0061 138.255 15.1338 139.691 14.5523C141.217 13.9707 143.282 13.68 145.974 13.68C150.014 13.68 152.886 14.3584 154.682 15.7153C156.387 17.0722 157.285 19.3014 157.285 22.4998V53.5146H147.68V48.7654C147.321 50.51 146.603 51.8669 145.615 52.8361C144.628 53.8053 143.192 54.3868 141.397 54.3868C139.422 54.2899 137.806 53.6115 136.549 52.1577ZM144.628 46.4393C144.897 46.7301 145.346 46.9239 145.974 46.9239C146.603 46.9239 147.052 46.7301 147.321 46.4393C147.59 46.1485 147.77 45.567 147.77 44.8886V35.0026C147.77 34.2272 147.59 33.7426 147.321 33.355C147.052 33.0642 146.603 32.8703 145.974 32.8703C145.346 32.8703 144.897 33.0642 144.628 33.355C144.359 33.6457 144.269 34.2272 144.269 35.0026V44.8886C144.179 45.6639 144.359 46.1485 144.628 46.4393Z" fill="#FAFAFF"/>
<path d="M160.696 14.5524H170.3V19.1076C170.659 17.46 171.378 16.2 172.365 15.1339C173.352 14.1647 174.699 13.6801 176.404 13.6801C178.2 13.6801 179.726 14.3585 180.982 15.7154C182.239 17.0723 182.867 19.2046 182.867 22.1122V31.6105H173.263V22.8876C173.263 22.2091 173.173 21.7245 172.903 21.4338C172.634 21.143 172.275 21.0461 171.826 21.0461C170.929 21.0461 170.48 21.5307 170.3 22.403V53.4177H160.696V14.5524Z" fill="#FAFAFF"/>
<path d="M187.984 63.4975C186.278 62.1406 185.381 60.0083 185.381 57.0038V56.0346H194.985V56.2284C194.985 56.9069 195.075 57.3915 195.344 57.6822C195.614 57.973 196.062 58.1668 196.691 58.1668C197.229 58.1668 197.678 57.973 197.947 57.6822C198.217 57.3915 198.396 56.8099 198.396 56.0346V48.6686C198.037 50.4131 197.319 51.77 196.332 52.7392C195.344 53.8054 193.908 54.29 192.113 54.29C190.228 54.29 188.612 53.6115 187.266 52.1577C186.009 50.7039 185.381 48.5716 185.381 45.664V14.5523H194.985V44.8886C194.985 45.664 195.075 46.1486 195.344 46.4394C195.614 46.7301 196.062 46.924 196.691 46.924C197.319 46.924 197.768 46.7301 198.037 46.4394C198.307 46.1486 198.486 45.5671 198.486 44.8886V14.5523H208.091V56.713C208.091 59.8145 207.193 62.0437 205.488 63.4006C203.782 64.7575 200.82 65.4359 196.781 65.4359C192.651 65.4359 189.779 64.7575 187.984 63.4975Z" fill="#FAFAFF"/>
<path d="M250.369 47.8932H245.163V53.5146H214.284V47.9901H245.253V36.6504H219.401V31.2228H245.253V19.9799H214.284V14.5523H245.163V20.1738H250.369V31.1259H245.163V36.8442H250.369V47.8932Z" fill="#FAFAFF"/>
<path d="M291.66 47.8932H286.454V53.5146H255.576V14.6493H286.454V20.2707H291.66V47.8932ZM286.454 47.8932V20.1738H260.782V47.8932H286.454Z" fill="#FAFAFF"/>
<path d="M228.736 76.5817H227.839V64.4665H228.736V69.3126C229.365 68.2465 230.442 67.6649 231.609 67.6649C234.032 67.6649 235.199 69.7972 235.199 72.3171C235.199 74.934 234.122 76.8724 231.519 76.8724C230.532 76.8724 229.275 76.2909 228.736 75.1279V76.5817ZM231.519 75.9032C233.135 75.9032 234.302 74.6433 234.302 72.511C234.391 70.2818 233.494 68.5372 231.519 68.5372C229.813 68.5372 228.826 70.1849 228.826 72.2202C228.736 74.2556 229.724 75.9032 231.519 75.9032Z" fill="#FAFAFF"/>
<path d="M237.174 79.0048C237.443 79.1017 237.713 79.1017 237.982 79.1017C239.059 79.1017 239.239 77.4541 239.598 76.6787L236.456 67.8589H237.533L240.136 75.3218L242.739 67.8589H243.727L240.765 76.4848C239.957 78.714 239.508 80.0709 238.251 80.0709C237.892 80.0709 237.623 79.974 237.354 79.974V79.0048H237.174Z" fill="#FAFAFF"/>
<path d="M248.484 67.8588H249.472L252.075 75.3217L254.678 67.8588H255.665L252.524 76.5817H251.446L248.484 67.8588Z" fill="#FAFAFF"/>
<path d="M257.281 66.0173V64.5634H258.269V66.0173H257.281ZM257.281 76.5817V67.8588H258.179V76.5817H257.281Z" fill="#FAFAFF"/>
<path d="M261.141 73.8679C261.41 75.3217 262.128 75.9032 263.565 75.9032C264.911 75.9032 265.539 75.1279 265.539 74.2556C265.539 71.7356 260.333 73.4802 260.333 70.088C260.333 68.6341 261.41 67.568 263.205 67.568C264.911 67.568 266.078 68.3434 266.347 70.2818H265.36C265.18 68.9249 264.372 68.4403 263.205 68.4403C262.039 68.4403 261.41 69.0218 261.41 69.8941C261.41 72.2202 266.616 70.7664 266.616 74.1586C266.616 75.8063 265.27 76.6786 263.295 76.6786C261.41 76.6786 260.333 75.3217 260.243 73.674H261.141V73.8679Z" fill="#FAFAFF"/>
<path d="M274.157 70.5726C273.798 69.3126 272.99 68.5372 271.733 68.5372C269.848 68.5372 269.04 70.3787 269.04 72.2202C269.04 74.0617 269.848 75.9032 271.733 75.9032C273.079 75.9032 273.977 75.0309 274.246 73.5771H275.234C274.875 75.5155 273.798 76.8724 271.733 76.8724C269.13 76.8724 268.053 74.8371 268.053 72.3171C268.053 69.8941 269.309 67.6649 271.733 67.6649C273.618 67.6649 274.785 68.6341 275.054 70.6695H274.157V70.5726Z" fill="#FAFAFF"/>
<path d="M276.49 72.2202C276.49 69.7003 277.747 67.6649 280.261 67.6649C282.774 67.6649 284.031 69.7003 284.031 72.2202C284.031 74.934 282.594 76.7755 280.261 76.7755C278.196 76.7755 276.49 75.3217 276.49 72.2202ZM280.261 68.5372C278.286 68.5372 277.478 70.3787 277.478 72.2202C277.478 74.3525 278.465 75.9032 280.261 75.9032C282.235 75.9032 283.043 74.0617 283.043 72.2202C283.043 70.1849 282.235 68.5372 280.261 68.5372Z" fill="#FAFAFF"/>
<path d="M287.98 66.599C287.98 65.0482 289.147 63.9821 290.493 63.9821C291.84 63.9821 293.007 65.1451 293.007 66.599C293.007 68.1497 291.84 69.3127 290.493 69.3127C289.147 69.3127 287.98 68.1497 287.98 66.599ZM290.493 68.8281C291.571 68.8281 292.468 67.8589 292.468 66.599C292.468 65.339 291.571 64.3698 290.493 64.3698C289.326 64.3698 288.519 65.339 288.519 66.599C288.519 67.9558 289.326 68.8281 290.493 68.8281ZM289.955 68.1497H289.506V65.0482H290.583C291.301 65.0482 291.571 65.339 291.571 65.9205C291.571 66.502 291.211 66.6959 290.852 66.7928L291.66 68.1497H291.211L290.493 66.7928H289.955V68.1497ZM290.493 66.502C290.852 66.502 291.211 66.502 291.211 66.0174C291.211 65.6297 290.852 65.5328 290.583 65.5328H289.955V66.502H290.493Z" fill="#FAFAFF"/>
</svg>
